<svg id="Layer_1" data-name="Layer 1" xmlns="http://www.w3.org/2000/svg" viewBox="0 0 28 19.31"><defs><style>.cls-1{fill:#aeaeb2;}.cls-2{fill:#9ba5cc;}.cls-3{fill:#c1c7de;}.cls-4{fill:#e2e4ee;}.cls-5{fill:#e0e2ed;}.cls-6{fill:#fefefe;}.cls-7{fill:#969696;}</style></defs><path class="cls-1" d="M11.06,23.63h-.62l-2.26,0c-.52,0-1,0-1.55,0s-1.08,0-1.62,0a3.47,3.47,0,0,1-1.3-.33,6.37,6.37,0,0,1-3-2.61,4.86,4.86,0,0,1-.69-2,4.12,4.12,0,0,1,.24-2,7.62,7.62,0,0,1,1.41-2.34,5,5,0,0,1,2.55-1.51.59.59,0,0,0,.47-.48A10.67,10.67,0,0,1,5.52,10,9,9,0,0,1,7,7.86a9.17,9.17,0,0,1,4-2.47A9.07,9.07,0,0,1,13.79,5a.17.17,0,0,1,.14,0c.34,0,.69,0,1,.11a.24.24,0,0,1,.16.07A8.91,8.91,0,0,1,17.56,6a9.1,9.1,0,0,1,2.52,1.93c.2.22.38.44.56.67.05,0,.08.07.12.11a11.23,11.23,0,0,1,.7,1.09.57.57,0,0,0,.47.35l.09,0a6.53,6.53,0,0,1,3.68,1.6,6.84,6.84,0,0,1,2.16,3.81A6.22,6.22,0,0,1,28,17a6.76,6.76,0,0,1-1.57,4.34,6.29,6.29,0,0,1-2.76,2,6.36,6.36,0,0,1-1.78.33H18.55a.34.34,0,0,0-.14,0H13.34a5.43,5.43,0,0,0-.57,0H11.69C11.48,23.63,11.27,23.65,11.06,23.63Z" transform="translate(0 -4.34)"/><path class="cls-2" d="M18.41,23.65s.07,0,.11,0h2.84a0,0,0,0,1,0,0h-3Z" transform="translate(0 -4.34)"/><path class="cls-2" d="M12.41,23.63h.85a.08.08,0,0,1,.08,0h-.92s0,0,0,0Z" transform="translate(0 -4.34)"/><path class="cls-3" d="M12.41,23.63v0h0Z" transform="translate(0 -4.34)"/><path class="cls-4" d="M11.69,23.63v0h-.63v0Z" transform="translate(0 -4.34)"/><path class="cls-3" d="M21.36,23.65v0h.35a0,0,0,0,1,0,0h-.36Z" transform="translate(0 -4.34)"/><path class="cls-5" d="M21.71,23.65v0h.17v0Z" transform="translate(0 -4.34)"/><path class="cls-6" d="M18.09,8A4.87,4.87,0,0,1,19,8.9a13.34,13.34,0,0,1,.9,1.32c0,.08,0,.1-.05.12a6.59,6.59,0,0,0-1.48.61.16.16,0,0,0-.1.21h0a1,1,0,0,0,1.29.62,4,4,0,0,1,1.12-.31,4.93,4.93,0,0,1,2.83.4A5.3,5.3,0,0,1,26.7,16,5.49,5.49,0,0,1,25.13,21a4.88,4.88,0,0,1-1.45,1,.57.57,0,0,1-.25.06c-.51,0-1,0-1.51,0s-1.17,0-1.75,0-1.15,0-1.72,0-1.17,0-1.75,0-1.14,0-1.71,0c-2.93,0-5.87,0-8.8,0a4.86,4.86,0,0,1-1.42-.14,4.24,4.24,0,0,1-2.88-2.5,3.7,3.7,0,0,1,.31-3.46,3.8,3.8,0,0,1,3.92-1.9.75.75,0,0,0,.86-.4,1.48,1.48,0,0,0,.19-.65c0-.21-.06-.31-.26-.36s-.44-.11-.66-.15-.09-.05-.06-.12a2.81,2.81,0,0,1,.58-.88c.3-.34.64-.63.92-1a1.13,1.13,0,0,0,.23-.4A.19.19,0,0,0,7.78,10l-.27,0s-.07,0-.08,0,0-.06.05-.07a6.88,6.88,0,0,1,.78-.37,5.24,5.24,0,0,1,2.5-.41,6.71,6.71,0,0,1,1.81.42c.42.14.84.3,1.26.43a2.91,2.91,0,0,0,1.89,0c.42-.15.84-.29,1.25-.47a1.91,1.91,0,0,0,1-1.23C18,8.14,18.06,8.05,18.09,8Z" transform="translate(0 -4.34)"/><path class="cls-1" d="M21.62,14.92a3.14,3.14,0,0,1,2.13.82A.77.77,0,0,1,23.69,17,.67.67,0,0,1,23,17a4.94,4.94,0,0,1-.55-.32,2.22,2.22,0,0,0-1-.29,2,2,0,0,0-1.29.55l-.38.35a.68.68,0,0,1-.92,0,.76.76,0,0,1-.15-1,2.54,2.54,0,0,1,.82-.81,3.52,3.52,0,0,1,1.65-.58Z" transform="translate(0 -4.34)"/><path class="cls-1" d="M13.21,20.07a3.78,3.78,0,0,1-2.33-.74,1.07,1.07,0,0,1-.16-.14.6.6,0,0,1,.12-1,.87.87,0,0,1,.87,0c.23.12.45.25.69.35a2.19,2.19,0,0,0,2.22-.24c.12-.07.23-.17.35-.25a.85.85,0,0,1,1-.1.64.64,0,0,1,.15,1,3.16,3.16,0,0,1-1.19.78A4.57,4.57,0,0,1,13.21,20.07Z" transform="translate(0 -4.34)"/><path class="cls-1" d="M5.77,16.24A2.58,2.58,0,0,1,7.53,17a.8.8,0,0,1,.16.85.76.76,0,0,1-.74.45.91.91,0,0,1-.45-.19,1.68,1.68,0,0,0-.83-.33,1.36,1.36,0,0,0-1,.41,1.79,1.79,0,0,1-.43.35.74.74,0,0,1-1-.7.86.86,0,0,1,.15-.44,2.43,2.43,0,0,1,1.2-.93A3.14,3.14,0,0,1,5.77,16.24Z" transform="translate(0 -4.34)"/><path class="cls-7" d="M18.13,14.29a6.58,6.58,0,0,0,2.67-1.18A.34.34,0,0,1,21,13h.16c3.23,0,5.55-1.84,5.55-4.35s-2.32-4.34-5.21-4.34-5.2,1.94-5.2,4.34a4.22,4.22,0,0,0,2.34,3.66.15.15,0,0,1,.06.21,12.07,12.07,0,0,1-.87,1.19C17.65,14,17.77,14.29,18.13,14.29Z" transform="translate(0 -4.34)"/></svg>