<svg xmlns="http://www.w3.org/2000/svg" viewBox="0 0 152.59 114.31"><defs><style>.cls-1{fill:#6e7eba;}.cls-2{fill:#9ba5cc;}.cls-3{fill:#c1c7de;}.cls-4{fill:#e2e4ee;}.cls-5{fill:#e0e2ed;}.cls-6{fill:#fefefe;}.cls-7{fill:#6e7fba;}.cls-8{fill:#42a0f0;}.cls-9{fill:#fff;}</style></defs><g id="Layer_2" data-name="Layer 2"><g id="Layer_1-2" data-name="Layer 1"><path class="cls-1" d="M60.29,114.18c-1.13,0-2.26,0-3.4-.05L44.58,114c-2.83,0-5.65,0-8.45,0s-5.89,0-8.84-.11a19.77,19.77,0,0,1-7.08-1.75A34.36,34.36,0,0,1,3.93,98.43,25.59,25.59,0,0,1,.15,87.71,21.35,21.35,0,0,1,1.48,77.37a38.93,38.93,0,0,1,7.7-12.32A26.92,26.92,0,0,1,23,57.16a3.09,3.09,0,0,0,2.55-2.53,55.94,55.94,0,0,1,4.5-12.21,46.78,46.78,0,0,1,7.85-11.13,49.92,49.92,0,0,1,21.53-13A50.72,50.72,0,0,1,75.13,16a1.1,1.1,0,0,1,.77-.17,56.4,56.4,0,0,1,5.65.62,1.2,1.2,0,0,1,.85.36,48.16,48.16,0,0,1,13.28,4.62,49.82,49.82,0,0,1,13.77,10.16q1.59,1.7,3,3.51c.32.07.47.33.65.56A53.63,53.63,0,0,1,117,41.38a3.06,3.06,0,0,0,2.55,1.86.88.88,0,0,1,.48.24c7.46,1,14.34,3.38,20.06,8.41a36,36,0,0,1,11.81,20,33.71,33.71,0,0,1,.74,7.15,35.12,35.12,0,0,1-8.54,22.82A34.63,34.63,0,0,1,129,112.48a33.5,33.5,0,0,1-9.72,1.72,4.17,4.17,0,0,1-1,0H101.07a1.4,1.4,0,0,0-.73.07H72.7a26.57,26.57,0,0,0-3.09-.07c-.65,0-1.3,0-2,0H63.72C62.58,114.2,61.44,114.28,60.29,114.18Z"/><path class="cls-2" d="M100.34,114.3c.15-.2.37-.14.57-.14h15.51a.09.09,0,0,1,0,.09s0,0,0,0Z"/><path class="cls-2" d="M67.65,114.18h4.62c.15,0,.32,0,.43.13h-5s-.06,0,0-.07S67.63,114.18,67.65,114.18Z"/><path class="cls-3" d="M67.65,114.18v.12h-4s-.06-.06,0-.08,0,0,0,0Z"/><path class="cls-4" d="M63.7,114.18v.12H60.29v-.12Z"/><path class="cls-3" d="M116.41,114.3a.28.28,0,0,1,0-.13h1.9s0,0,0,.07,0,0,0,0Z"/><path class="cls-5" d="M118.31,114.3v-.12h1v.12Z"/><path class="cls-6" d="M98.61,31.79a27.46,27.46,0,0,1,5,4.94,71.21,71.21,0,0,1,4.89,7c.29.45.16.52-.28.64a38.93,38.93,0,0,0-8.07,3.18.86.86,0,0,0-.51,1.11l0,0c.81,2.62,4.61,4.44,7.07,3.3a21.32,21.32,0,0,1,6.07-1.63,27.66,27.66,0,0,1,15.42,2.06c9.53,4.28,15.49,11.57,17.25,21.9,1.72,10.08-1.31,18.81-8.58,26a27.69,27.69,0,0,1-7.9,5.37,3.11,3.11,0,0,1-1.38.29c-2.74,0-5.49,0-8.23.07-3.17.11-6.35,0-9.52.14s-6.27,0-9.39.13-6.35,0-9.52.14-6.22.07-9.33.11c-16,.23-31.95,0-47.92.14A28.29,28.29,0,0,1,26,106c-7.19-2-12.7-6.19-15.7-13.15C7.6,86.53,8.45,80.39,12,74.64A20.56,20.56,0,0,1,25.17,65a22.23,22.23,0,0,1,8.17-.29c2.06.27,3.59-.22,4.67-2.12a6.84,6.84,0,0,0,1.06-3.4,1.65,1.65,0,0,0-1.44-1.91c-1.18-.3-2.37-.58-3.57-.8-.49-.1-.47-.25-.33-.63a14.59,14.59,0,0,1,3.19-4.62c1.63-1.76,3.48-3.32,5-5.19a6,6,0,0,0,1.24-2.08,1,1,0,0,0-.78-1.39,5,5,0,0,0-1.48-.15c-.15,0-.37.06-.44-.12s.17-.3.31-.37a37.18,37.18,0,0,1,4.26-2,30.42,30.42,0,0,1,13.57-2.16A39.79,39.79,0,0,1,68.53,40c2.27.77,4.53,1.58,6.82,2.3a16.54,16.54,0,0,0,10.34-.2c2.29-.74,4.56-1.52,6.77-2.44a10.26,10.26,0,0,0,5.69-6.5C98.3,32.74,98.44,32.31,98.61,31.79Z"/><path class="cls-7" d="M117.84,68.39a17.44,17.44,0,0,1,11.59,4.3,4,4,0,0,1-.33,6.63,3.74,3.74,0,0,1-3.58.2,28.75,28.75,0,0,1-3-1.67,12.22,12.22,0,0,0-5.44-1.53,10.89,10.89,0,0,0-7,2.89c-.71.59-1.36,1.27-2.09,1.83a3.73,3.73,0,0,1-5,.1,3.91,3.91,0,0,1-.81-5.32,14,14,0,0,1,4.49-4.29,19.72,19.72,0,0,1,9-3C116.35,68.44,117.09,68.4,117.84,68.39Z"/><path class="cls-7" d="M74.12,83.65a21.35,21.35,0,0,1,12.7,3.89,6.91,6.91,0,0,1,.89.73c1.87,1.81,1.59,4.06-.66,5.36a4.82,4.82,0,0,1-4.75,0C81,93,79.82,92.29,78.52,91.75A12.4,12.4,0,0,0,66.42,93c-.64.4-1.26.89-1.89,1.32-1.71,1.17-3.5,1.62-5.42.54a3.3,3.3,0,0,1-.8-5.51,17.38,17.38,0,0,1,6.49-4.11A26.23,26.23,0,0,1,74.12,83.65Z"/><path class="cls-7" d="M31.42,75.33a14.06,14.06,0,0,1,9.6,4,4,4,0,0,1,.86,4.44,4.06,4.06,0,0,1-4,2.36,5.09,5.09,0,0,1-2.42-1,9.37,9.37,0,0,0-4.52-1.71,7.67,7.67,0,0,0-5.68,2.16,10.7,10.7,0,0,1-2.36,1.82,4,4,0,0,1-5.61-3.67,4.9,4.9,0,0,1,.84-2.33,13.2,13.2,0,0,1,6.55-4.87A17.78,17.78,0,0,1,31.42,75.33Z"/><path class="cls-8" d="M126.67,0c1.18,0,13.11,18.65,13.11,25.89a13.29,13.29,0,0,1-1,5,13.11,13.11,0,0,1-25.23-5C113.56,18.65,125.49,0,126.67,0Z"/><path class="cls-9" d="M116.67,30.79c1.31.4,3-1.24,3.72-3.68s.29-4.73-1-5.13-3,1.25-3.72,3.68S115.36,30.39,116.67,30.79Z"/></g></g></svg>