<svg xmlns="http://www.w3.org/2000/svg" xmlns:xlink="http://www.w3.org/1999/xlink" viewBox="0 0 165.81 108.64"><defs><style>.cls-1{fill:#fefefe;}.cls-2{fill:#9ba5cc;}.cls-3{fill:#c1c7de;}.cls-4{fill:#e2e4ee;}.cls-5{fill:#e0e2ed;}.cls-6,.cls-7{fill:#c1c1c1;}.cls-7{fill-opacity:0.5;}.cls-8{fill:#6e7eba;}.cls-9{fill:#42a0f0;}.cls-10{fill:#fff;}.cls-11{fill:url(#linear-gradient);}.cls-12{fill:#6e7fba;}</style><linearGradient id="linear-gradient" x1="147.91" y1="221.65" x2="143.01" y2="223.45" gradientTransform="matrix(1, 0, 0, -1, 0, 265.26)" gradientUnits="userSpaceOnUse"><stop offset="0" stop-color="#ffd100"/><stop offset="1" stop-color="#fff0aa"/></linearGradient></defs><g id="Layer_2" data-name="Layer 2"><g id="Layer_1-2" data-name="Layer 1"><path class="cls-1" d="M28.18,51.09c.38.08.91-.49,1.2-1.28s.21-1.5-.17-1.59-.92.48-1.2,1.27S27.8,51,28.18,51.09Z"/><path class="cls-1" d="M20.79,47.62c.38.09.92-.48,1.2-1.27s.21-1.51-.17-1.6-.92.49-1.2,1.28S20.41,47.53,20.79,47.62Z"/><path class="cls-2" d="M67.65,108.5h4.62c.15,0,.32,0,.43.14h-5s-.06,0,0-.08S67.63,108.5,67.65,108.5Z"/><path class="cls-3" d="M67.65,108.5v.12h-4s-.06-.05,0-.08,0,0,0,0Z"/><path class="cls-4" d="M63.7,108.5v.12H60.29v-.12Z"/><path class="cls-2" d="M100.34,108.62c.15-.2.37-.14.57-.14h15.51a.09.09,0,0,1,0,.09s0,0,0,0Z"/><path class="cls-3" d="M116.41,108.62a.29.29,0,0,1,0-.13h1.9s0,.05,0,.08,0,0,0,0Z"/><path class="cls-5" d="M118.31,108.62v-.12h1v.12Z"/><path class="cls-6" d="M143.06,40.45c-.38,0-.76,0-1.15,0h-27a14.14,14.14,0,0,1-13.11-8.71,14.13,14.13,0,0,1,13.11-19.56H125A21.35,21.35,0,0,1,144.51,0c11.76,0,21.3,9.06,21.3,20.25s-9.54,20.24-21.3,20.24C144,40.49,143.54,40.48,143.06,40.45Z"/><path class="cls-7" d="M144.51,40.3a22.37,22.37,0,0,0,4.26-.41,21.71,21.71,0,0,0,4-1.17,20.55,20.55,0,0,0,3.58-1.85,21.26,21.26,0,0,0,3.13-2.45,20.14,20.14,0,0,0,2.57-3,19.8,19.8,0,0,0,2-3.4,19.42,19.42,0,0,0,1.22-3.76,19.19,19.19,0,0,0,0-8.08A19.2,19.2,0,0,0,164,12.45,19.89,19.89,0,0,0,162,9a20.66,20.66,0,0,0-2.57-3,21.26,21.26,0,0,0-3.13-2.45,22,22,0,0,0-3.58-1.85A21.74,21.74,0,0,0,144.51.2a21.82,21.82,0,0,0-11.73,3.38,21.06,21.06,0,0,0-4.47,3.83,19.9,19.9,0,0,0-3.17,4.89l0,.12H114.88a14,14,0,0,0-5.43,1.09,14.35,14.35,0,0,0-4.43,3,14.54,14.54,0,0,0-1.7,2.06,14,14,0,0,0-2.38,7.8,13.75,13.75,0,0,0,1.1,5.42,13.21,13.21,0,0,0,1.28,2.37,14,14,0,0,0,1.7,2.06,13.53,13.53,0,0,0,2.07,1.71,14.17,14.17,0,0,0,2.36,1.28,13.83,13.83,0,0,0,5.43,1.1h27c.38,0,.76,0,1.14,0h0C143.55,40.28,144,40.3,144.51,40.3Zm0,.19c-.48,0-1,0-1.45,0s-.76,0-1.15,0h-27a14.14,14.14,0,1,1,0-28.27H125A21.35,21.35,0,0,1,144.51,0c11.76,0,21.3,9.06,21.3,20.25S156.27,40.49,144.51,40.49Z"/><path class="cls-8" d="M60.29,108.5c-1.13,0-2.26,0-3.4,0l-12.31-.1c-2.83,0-5.65,0-8.45,0s-5.89,0-8.84-.1a20,20,0,0,1-7.08-1.76A34.31,34.31,0,0,1,3.93,92.75,25.54,25.54,0,0,1,.15,82,21.3,21.3,0,0,1,1.48,71.7a38.71,38.71,0,0,1,7.7-12.32A26.87,26.87,0,0,1,23,51.48,3.08,3.08,0,0,0,25.59,49a55.86,55.86,0,0,1,4.5-12.2,46.58,46.58,0,0,1,7.85-11.13,49.85,49.85,0,0,1,21.53-13A50.72,50.72,0,0,1,75.13,10.3a1.1,1.1,0,0,1,.77-.17c1.89.17,3.78.27,5.65.62a1.2,1.2,0,0,1,.85.36,48.16,48.16,0,0,1,13.28,4.62,50,50,0,0,1,13.77,10.16q1.59,1.7,3,3.51c.32.07.47.33.65.56A52.77,52.77,0,0,1,117,35.71a3.06,3.06,0,0,0,2.55,1.85.88.88,0,0,1,.48.24c7.46,1,14.34,3.38,20.06,8.42a35.92,35.92,0,0,1,11.81,20,33.71,33.71,0,0,1,.74,7.15,35.12,35.12,0,0,1-8.54,22.82A34.63,34.63,0,0,1,129,106.8a33.17,33.17,0,0,1-9.72,1.72,4.76,4.76,0,0,1-1,0H101.07a1.3,1.3,0,0,0-.73.07H72.7a24.53,24.53,0,0,0-3.09-.07c-.65,0-1.3,0-2,0H63.72C62.58,108.52,61.44,108.61,60.29,108.5Z"/><path class="cls-1" d="M98.61,26.11a27.79,27.79,0,0,1,5,4.94,71.21,71.21,0,0,1,4.89,7c.29.45.16.52-.28.65a38.35,38.35,0,0,0-8.07,3.17.88.88,0,0,0-.51,1.12s0,0,0,0c.81,2.63,4.61,4.44,7.07,3.3a21.32,21.32,0,0,1,6.07-1.63,27.66,27.66,0,0,1,15.42,2.06c9.53,4.29,15.49,11.57,17.25,21.9,1.72,10.08-1.31,18.81-8.58,26A27.49,27.49,0,0,1,129,100a3.26,3.26,0,0,1-1.38.3c-2.74,0-5.49,0-8.23.07-3.17.1-6.35,0-9.52.13s-6.27,0-9.39.13-6.35,0-9.52.14-6.22.07-9.33.12c-16,.23-31.95,0-47.92.14A27.91,27.91,0,0,1,26,100.3c-7.19-2-12.7-6.18-15.7-13.15C7.6,80.85,8.45,74.71,12,69a20.56,20.56,0,0,1,13.18-9.68A22.23,22.23,0,0,1,33.34,59c2.06.28,3.59-.21,4.67-2.12a6.84,6.84,0,0,0,1.06-3.4,1.65,1.65,0,0,0-1.44-1.91c-1.18-.3-2.37-.58-3.57-.8-.49-.1-.47-.25-.33-.63a14.71,14.71,0,0,1,3.19-4.62c1.63-1.76,3.48-3.31,5-5.19a6,6,0,0,0,1.24-2.08,1,1,0,0,0-.78-1.39,5.32,5.32,0,0,0-1.48-.15c-.15,0-.37.06-.44-.11s.17-.3.31-.38a39,39,0,0,1,4.26-2A30.56,30.56,0,0,1,58.61,32.1a40.24,40.24,0,0,1,9.92,2.21c2.27.78,4.53,1.59,6.82,2.3a16.61,16.61,0,0,0,10.34-.19C88,35.67,90.25,34.9,92.46,34a10.26,10.26,0,0,0,5.69-6.5C98.3,27.06,98.44,26.63,98.61,26.11Z"/><path class="cls-9" d="M121.53,35.15a28.1,28.1,0,0,1-3.33,6.23c-1.27,1.46-2.82,2.18-3.48,1.61s-.16-2.21,1.11-3.67A28.77,28.77,0,0,1,121.53,35.15Z"/><path class="cls-10" d="M116.05,40.3c.13.21.57.16,1-.1s.65-.63.52-.84-.57-.16-1,.1S115.93,40.1,116.05,40.3Z"/><path class="cls-9" d="M134.9,35.15a28.25,28.25,0,0,1-3.34,6.23c-1.26,1.46-2.81,2.18-3.47,1.61s-.16-2.21,1.11-3.67A28.77,28.77,0,0,1,134.9,35.15Z"/><path class="cls-10" d="M129.42,40.3c.13.21.57.16,1-.1s.65-.63.53-.84-.57-.16-1,.1S129.29,40.1,129.42,40.3Z"/><path class="cls-9" d="M136.47,45a28.1,28.1,0,0,1-3.33,6.23c-1.27,1.46-2.82,2.17-3.48,1.61s-.16-2.21,1.11-3.67A28.77,28.77,0,0,1,136.47,45Z"/><path class="cls-10" d="M131,50.13c.13.2.57.16,1-.1s.65-.64.52-.84-.57-.16-1,.1S130.87,49.93,131,50.13Z"/><path class="cls-9" d="M121.53,45a28.1,28.1,0,0,1-3.33,6.23c-1.27,1.46-2.82,2.17-3.48,1.61s-.16-2.21,1.11-3.67A28.77,28.77,0,0,1,121.53,45Z"/><path class="cls-10" d="M116.05,50.13c.13.2.57.16,1-.1s.65-.64.52-.84-.57-.16-1,.1S115.93,49.93,116.05,50.13Z"/><path class="cls-11" d="M147.14,36.28h6.2l-3.56,5.23,4.16.08L145.2,51.93,147.32,44h-3.88Z"/><path class="cls-12" d="M74.12,78a21.35,21.35,0,0,1,12.7,3.89,7.86,7.86,0,0,1,.89.73c1.87,1.81,1.59,4.06-.66,5.36a4.82,4.82,0,0,1-4.75,0c-1.26-.61-2.48-1.31-3.78-1.85a12.4,12.4,0,0,0-12.1,1.26c-.64.41-1.26.89-1.89,1.33-1.71,1.16-3.5,1.61-5.42.53a3.3,3.3,0,0,1-.8-5.51,17.51,17.51,0,0,1,6.49-4.11A26.23,26.23,0,0,1,74.12,78Z"/><path class="cls-12" d="M31.42,69.66a14,14,0,0,1,9.6,4,4,4,0,0,1,.86,4.44,4,4,0,0,1-4,2.36,5.07,5.07,0,0,1-2.42-1,9.38,9.38,0,0,0-4.52-1.72,7.67,7.67,0,0,0-5.68,2.16,11.06,11.06,0,0,1-2.36,1.83A4,4,0,0,1,17.26,78a4.9,4.9,0,0,1,.84-2.34,13.32,13.32,0,0,1,6.55-4.87A17.78,17.78,0,0,1,31.42,69.66Z"/><path class="cls-12" d="M117.84,62.72A17.48,17.48,0,0,1,129.43,67a4,4,0,0,1-.33,6.63,3.76,3.76,0,0,1-3.58.21,30.77,30.77,0,0,1-3-1.68,12.22,12.22,0,0,0-5.44-1.53,10.85,10.85,0,0,0-7,2.9c-.71.58-1.36,1.26-2.09,1.83a3.74,3.74,0,0,1-5,.09,3.91,3.91,0,0,1-.81-5.32,14,14,0,0,1,4.49-4.29,19.59,19.59,0,0,1,9-3A21.34,21.34,0,0,1,117.84,62.72Z"/></g></g></svg>