<svg xmlns="http://www.w3.org/2000/svg" viewBox="0 0 167.7 109.9"><defs><style>.cls-1,.cls-2{fill:#c1c1c1;}.cls-2{fill-opacity:0.5;}.cls-3{fill:#6e7eba;}.cls-4{fill:#9ba5cc;}.cls-5{fill:#c1c7de;}.cls-6{fill:#e2e4ee;}.cls-7{fill:#e0e2ed;}.cls-8{fill:#fefefe;}.cls-9{fill:#6e7fba;}.cls-10{fill:#42a0f0;}.cls-11{fill:#fff;}</style></defs><g id="Layer_2" data-name="Layer 2"><g id="Layer_1-2" data-name="Layer 1"><path class="cls-1" d="M145.29,39.86c-.38,0-.75,0-1.14,0H117.51a13.93,13.93,0,0,1-5.34-26.81A14,14,0,0,1,117.51,12h9.94A21,21,0,0,1,146.72,0c11.59,0,21,8.93,21,20s-9.39,20-21,20C146.24,39.9,145.76,39.89,145.29,39.86Z"/><path class="cls-2" d="M146.72,39.71a22.54,22.54,0,0,0,4.19-.4,21.6,21.6,0,0,0,3.9-1.15,21.18,21.18,0,0,0,3.54-1.83,20.5,20.5,0,0,0,3.07-2.41A19.63,19.63,0,0,0,164,31a19,19,0,0,0,3.13-7.06,19.07,19.07,0,0,0,0-8,19.62,19.62,0,0,0-1.21-3.71A19.22,19.22,0,0,0,164,8.91,20.15,20.15,0,0,0,161.42,6a20.71,20.71,0,0,0-6.61-4.23A20.83,20.83,0,0,0,150.91.6a21.72,21.72,0,0,0-4.19-.41,21.47,21.47,0,0,0-11.56,3.34,20.47,20.47,0,0,0-4.41,3.77,19.65,19.65,0,0,0-3.13,4.82l-.05.12H117.51a13.56,13.56,0,0,0-5.34,1.08,13.88,13.88,0,0,0-2.34,1.26,14.15,14.15,0,0,0-2,1.68,14.85,14.85,0,0,0-1.68,2,13.88,13.88,0,0,0-1.26,2.34,13.77,13.77,0,0,0,0,10.69,13.79,13.79,0,0,0,1.26,2.33,14.35,14.35,0,0,0,1.68,2,14.08,14.08,0,0,0,2,1.67,13.25,13.25,0,0,0,2.34,1.27,13.56,13.56,0,0,0,5.34,1.08h26.64c.38,0,.75,0,1.12,0h0C145.77,39.69,146.25,39.71,146.72,39.71Zm0,.19c-.48,0-1,0-1.43,0s-.75,0-1.14,0H117.51a13.93,13.93,0,0,1,0-27.86h9.94A21,21,0,0,1,146.72,0c11.59,0,21,8.93,21,20S158.31,39.9,146.72,39.9Z"/><path class="cls-3" d="M60.29,109.77c-1.13,0-2.26,0-3.4,0l-12.31-.11c-2.83,0-5.65,0-8.45,0s-5.89,0-8.84-.11a20,20,0,0,1-7.08-1.75A34.36,34.36,0,0,1,3.93,94,25.59,25.59,0,0,1,.15,83.3,21.35,21.35,0,0,1,1.48,73a38.93,38.93,0,0,1,7.7-12.32A26.86,26.86,0,0,1,23,52.75a3.09,3.09,0,0,0,2.55-2.53A55.94,55.94,0,0,1,30.09,38a46.78,46.78,0,0,1,7.85-11.13,49.92,49.92,0,0,1,21.53-13,50.72,50.72,0,0,1,15.66-2.33,1.1,1.1,0,0,1,.77-.17,56.4,56.4,0,0,1,5.65.62,1.2,1.2,0,0,1,.85.36A48.16,48.16,0,0,1,95.68,17a49.82,49.82,0,0,1,13.77,10.16q1.59,1.69,3,3.51c.32.07.47.33.65.56A53.63,53.63,0,0,1,117,37a3.06,3.06,0,0,0,2.55,1.86.88.88,0,0,1,.48.24c7.46,1,14.34,3.38,20.06,8.41a36,36,0,0,1,11.81,20,33.71,33.71,0,0,1,.74,7.15,35.07,35.07,0,0,1-8.54,22.81A34.65,34.65,0,0,1,129,108.07a33.5,33.5,0,0,1-9.72,1.72,4.17,4.17,0,0,1-1,0H101.07a1.4,1.4,0,0,0-.73.07H72.7a26.57,26.57,0,0,0-3.09-.07c-.65,0-1.3,0-2,0H63.72C62.58,109.79,61.44,109.87,60.29,109.77Z"/><path class="cls-4" d="M100.34,109.89c.15-.2.37-.14.57-.14h15.51a.09.09,0,0,1,0,.09s0,0,0,0Z"/><path class="cls-4" d="M67.65,109.77h4.62c.15,0,.32,0,.43.13h-5s-.06-.05,0-.07S67.63,109.77,67.65,109.77Z"/><path class="cls-5" d="M67.65,109.77v.12h-4s-.06-.06,0-.08,0,0,0,0Z"/><path class="cls-6" d="M63.7,109.77v.12H60.29v-.12Z"/><path class="cls-5" d="M116.41,109.89a.28.28,0,0,1,0-.13h1.9s0,0,0,.07,0,0,0,0Z"/><path class="cls-7" d="M118.31,109.89v-.12h1v.12Z"/><path class="cls-8" d="M98.61,27.38a27.46,27.46,0,0,1,5,4.94,71.21,71.21,0,0,1,4.89,7c.29.45.16.52-.28.64a38.38,38.38,0,0,0-8.07,3.18.86.86,0,0,0-.51,1.11l0,0c.81,2.62,4.61,4.44,7.07,3.3a21.67,21.67,0,0,1,6.07-1.64A27.66,27.66,0,0,1,128.27,48c9.53,4.28,15.49,11.57,17.25,21.89,1.72,10.09-1.31,18.81-8.58,26a27.69,27.69,0,0,1-7.9,5.37,3.26,3.26,0,0,1-1.38.29c-2.74,0-5.49,0-8.23.07-3.17.11-6.35,0-9.52.14s-6.27,0-9.39.13-6.35,0-9.52.14-6.22.07-9.33.11c-16,.23-31.95,0-47.92.14a28.29,28.29,0,0,1-7.74-.71c-7.19-2-12.7-6.19-15.7-13.15C7.6,82.11,8.45,76,12,70.23a20.53,20.53,0,0,1,13.18-9.68,22.23,22.23,0,0,1,8.17-.29c2.06.27,3.59-.22,4.67-2.12a6.84,6.84,0,0,0,1.06-3.4,1.65,1.65,0,0,0-1.44-1.91c-1.18-.3-2.37-.58-3.57-.81-.49-.09-.47-.25-.33-.62a14.59,14.59,0,0,1,3.19-4.62c1.63-1.76,3.48-3.32,5-5.19a6,6,0,0,0,1.24-2.08,1,1,0,0,0-.78-1.4A5,5,0,0,0,40.91,38c-.15,0-.37.06-.44-.12s.17-.3.31-.37A37.18,37.18,0,0,1,45,35.53a30.42,30.42,0,0,1,13.57-2.16,39.79,39.79,0,0,1,9.92,2.21c2.27.77,4.53,1.58,6.82,2.3a16.54,16.54,0,0,0,10.34-.2c2.29-.74,4.56-1.52,6.77-2.45a10.22,10.22,0,0,0,5.69-6.49C98.3,28.33,98.44,27.89,98.61,27.38Z"/><path class="cls-9" d="M117.84,64a17.44,17.44,0,0,1,11.59,4.3,4,4,0,0,1-.33,6.63,3.74,3.74,0,0,1-3.58.2,28.75,28.75,0,0,1-3-1.67,12.22,12.22,0,0,0-5.44-1.53,10.89,10.89,0,0,0-7,2.89c-.71.59-1.36,1.27-2.09,1.83a3.73,3.73,0,0,1-5,.1,3.91,3.91,0,0,1-.81-5.32,14,14,0,0,1,4.49-4.29,19.6,19.6,0,0,1,9-3C116.35,64,117.09,64,117.84,64Z"/><path class="cls-9" d="M74.12,79.24a21.28,21.28,0,0,1,12.7,3.89,6.91,6.91,0,0,1,.89.73c1.87,1.8,1.59,4-.66,5.36a4.82,4.82,0,0,1-4.75,0c-1.26-.61-2.48-1.31-3.78-1.85a12.4,12.4,0,0,0-12.1,1.26c-.64.4-1.26.89-1.89,1.32-1.71,1.17-3.5,1.62-5.42.54a3.3,3.3,0,0,1-.8-5.51,17.38,17.38,0,0,1,6.49-4.11A26,26,0,0,1,74.12,79.24Z"/><path class="cls-9" d="M31.42,70.92a14.06,14.06,0,0,1,9.6,4,4,4,0,0,1,.86,4.44,4.06,4.06,0,0,1-4,2.36,5.09,5.09,0,0,1-2.42-1A9.27,9.27,0,0,0,30.91,79a7.67,7.67,0,0,0-5.68,2.16A10.7,10.7,0,0,1,22.87,83a4,4,0,0,1-5.61-3.67,5,5,0,0,1,.84-2.34,13.24,13.24,0,0,1,6.55-4.86A17.59,17.59,0,0,1,31.42,70.92Z"/><path class="cls-10" d="M122.69,23.79a30.07,30.07,0,0,1-3.53,6.59c-1.34,1.55-3,2.31-3.68,1.7s-.17-2.34,1.17-3.88A30,30,0,0,1,122.69,23.79Z"/><path class="cls-11" d="M116.89,29.24c.13.21.6.17,1-.11s.69-.67.55-.89-.6-.16-1,.11S116.75,29,116.89,29.24Z"/><path class="cls-10" d="M136.85,23.79a30.52,30.52,0,0,1-3.53,6.59c-1.34,1.55-3,2.31-3.68,1.7s-.17-2.34,1.17-3.88A30,30,0,0,1,136.85,23.79Z"/><path class="cls-11" d="M131.05,29.24c.13.21.6.17,1-.11s.68-.67.55-.89-.6-.16-1,.11S130.91,29,131.05,29.24Z"/><path class="cls-10" d="M151,23.79a30.22,30.22,0,0,1-3.54,6.59c-1.34,1.55-3,2.31-3.68,1.7s-.17-2.34,1.17-3.88A30,30,0,0,1,151,23.79Z"/><path class="cls-11" d="M145.2,29.24c.14.21.6.17,1-.11s.69-.67.56-.89-.6-.16-1,.11S145.07,29,145.2,29.24Z"/><path class="cls-10" d="M138.51,34.2A30.07,30.07,0,0,1,135,40.79c-1.34,1.54-3,2.31-3.68,1.7s-.17-2.34,1.17-3.88A30,30,0,0,1,138.51,34.2Z"/><path class="cls-11" d="M132.71,39.65c.14.21.6.17,1-.11s.69-.67.55-.89-.6-.16-1,.11S132.58,39.43,132.71,39.65Z"/><path class="cls-10" d="M155.79,34.2a30.07,30.07,0,0,1-3.53,6.59c-1.34,1.54-3,2.31-3.68,1.7s-.17-2.34,1.17-3.88A30,30,0,0,1,155.79,34.2Z"/><path class="cls-11" d="M150,39.65c.14.21.6.17,1-.11s.69-.67.55-.89-.6-.16-1,.11S149.86,39.43,150,39.65Z"/><path class="cls-10" d="M143.3,41.69a30.08,30.08,0,0,1-3.53,6.6c-1.34,1.54-3,2.3-3.68,1.7s-.17-2.34,1.17-3.88A30.19,30.19,0,0,1,143.3,41.69Z"/><path class="cls-11" d="M137.5,47.14c.13.22.6.17,1-.1s.69-.68.55-.89-.6-.17-1,.11S137.37,46.93,137.5,47.14Z"/><path class="cls-10" d="M127.48,41.69a30.08,30.08,0,0,1-3.53,6.6c-1.34,1.54-3,2.3-3.68,1.7s-.17-2.34,1.17-3.88A30.19,30.19,0,0,1,127.48,41.69Z"/><path class="cls-11" d="M121.68,47.14c.13.22.6.17,1-.1s.68-.68.55-.89-.6-.17-1,.11S121.54,46.93,121.68,47.14Z"/><path class="cls-10" d="M122.69,34.2a30.07,30.07,0,0,1-3.53,6.59c-1.34,1.54-3,2.31-3.68,1.7s-.17-2.34,1.17-3.88A30,30,0,0,1,122.69,34.2Z"/><path class="cls-11" d="M116.89,39.65c.13.21.6.17,1-.11s.69-.67.55-.89-.6-.16-1,.11S116.75,39.43,116.89,39.65Z"/></g></g></svg>