<svg xmlns="http://www.w3.org/2000/svg" viewBox="0 0 152.59 107.08"><defs><style>.cls-1{fill:#713ffd;}.cls-2{fill:#a586fc;}.cls-3{fill:#9ba5cc;}.cls-4{fill:#c1c7de;}.cls-5{fill:#e0e2ed;}.cls-6{fill:#6e7eba;}.cls-7{fill:#fefefe;}.cls-8{fill:#6e7fba;}.cls-9{fill:#e2e4ee;}</style></defs><g id="Layer_2" data-name="Layer 2"><g id="Layer_1-2" data-name="Layer 1"><path class="cls-1" d="M127,45.72a22.84,22.84,0,0,1-4.59-.47,22.6,22.6,0,0,1-8.13-3.44A22.88,22.88,0,0,1,122.36.46,23.16,23.16,0,0,1,129.6.15a18.08,18.08,0,0,0-1.17,3.51A17.6,17.6,0,0,0,131,17.28,17.74,17.74,0,0,0,135.77,22a18.66,18.66,0,0,0,3,1.62,17.27,17.27,0,0,0,3.3,1,17.78,17.78,0,0,0,7.58-.11,22.84,22.84,0,0,1-7.17,15A22.6,22.6,0,0,1,127,45.72Z"/><path class="cls-2" d="M122.94,19.71c5.11-4.59,6.7-11.15,3.55-14.64s-9.83-2.6-14.93,2-6.7,11.15-3.55,14.64S117.84,24.31,122.94,19.71Z"/><path class="cls-3" d="M100.34,107.06c.15-.19.37-.13.57-.13h15.51a.09.09,0,0,1,0,.09s0,0,0,0Z"/><path class="cls-4" d="M116.41,107.06a.24.24,0,0,1,0-.12h1.9s0,0,0,.07,0,0,0,0Z"/><path class="cls-5" d="M118.31,107.06V107h1v.11Z"/><path class="cls-6" d="M60.29,107c-1.13,0-2.26,0-3.4,0l-12.31-.11c-2.83,0-5.65,0-8.45,0s-5.89,0-8.84-.11a20,20,0,0,1-7.08-1.75A34.33,34.33,0,0,1,3.93,91.19,25.5,25.5,0,0,1,.15,80.48,21.34,21.34,0,0,1,1.48,70.14a38.93,38.93,0,0,1,7.7-12.32A26.79,26.79,0,0,1,23,49.93a3.09,3.09,0,0,0,2.55-2.53,55.94,55.94,0,0,1,4.5-12.21,46.78,46.78,0,0,1,7.85-11.13,49.83,49.83,0,0,1,21.53-13A50.73,50.73,0,0,1,75.13,8.74a1,1,0,0,1,.77-.16,56.4,56.4,0,0,1,5.65.62,1.2,1.2,0,0,1,.85.36,48.16,48.16,0,0,1,13.28,4.62,49.62,49.62,0,0,1,13.77,10.16c1.06,1.13,2.06,2.29,3,3.5.32.08.47.34.65.57A53.63,53.63,0,0,1,117,34.15,3.07,3.07,0,0,0,119.5,36a.94.94,0,0,1,.48.23c7.46,1,14.34,3.39,20.06,8.42a36,36,0,0,1,11.81,20,33.71,33.71,0,0,1,.74,7.15,35.09,35.09,0,0,1-8.54,22.81A34.65,34.65,0,0,1,129,105.25a33.5,33.5,0,0,1-9.72,1.72,4.76,4.76,0,0,1-1,0H101.07a1.4,1.4,0,0,0-.73.07H72.7a24.53,24.53,0,0,0-3.09-.07c-.65,0-1.3,0-2,0H63.72C62.58,107,61.44,107.05,60.29,107Z"/><path class="cls-7" d="M98.61,24.56a27.73,27.73,0,0,1,5,4.93,71.35,71.35,0,0,1,4.89,7c.29.44.16.52-.28.64a38.38,38.38,0,0,0-8.07,3.18.86.86,0,0,0-.51,1.11l0,0c.81,2.62,4.61,4.43,7.07,3.3a21.34,21.34,0,0,1,6.07-1.64,27.66,27.66,0,0,1,15.42,2.07c9.53,4.28,15.49,11.56,17.25,21.89,1.72,10.09-1.31,18.81-8.58,26a27.46,27.46,0,0,1-7.9,5.36,3.12,3.12,0,0,1-1.38.3c-2.74,0-5.49,0-8.23.07-3.17.11-6.35,0-9.52.13s-6.27,0-9.39.14-6.35,0-9.52.13-6.22.08-9.33.12c-16,.23-31.95,0-47.92.14A27.91,27.91,0,0,1,26,98.74c-7.19-2-12.7-6.18-15.7-13.14C7.6,79.29,8.45,73.16,12,67.4a20.59,20.59,0,0,1,13.18-9.68,22.67,22.67,0,0,1,8.17-.29c2.06.28,3.59-.21,4.67-2.11a6.87,6.87,0,0,0,1.06-3.4A1.64,1.64,0,0,0,37.63,50c-1.18-.3-2.37-.59-3.57-.81-.49-.09-.47-.25-.33-.62A14.59,14.59,0,0,1,36.92,44c1.63-1.76,3.48-3.32,5-5.19a6,6,0,0,0,1.24-2.09,1,1,0,0,0-.78-1.39,5.32,5.32,0,0,0-1.48-.15c-.15,0-.37.06-.44-.11s.17-.3.31-.37a39,39,0,0,1,4.26-2,30.41,30.41,0,0,1,13.57-2.15,39.79,39.79,0,0,1,9.92,2.21c2.27.77,4.53,1.58,6.82,2.3a16.54,16.54,0,0,0,10.34-.2c2.29-.74,4.56-1.52,6.77-2.45a10.22,10.22,0,0,0,5.69-6.49C98.3,25.5,98.44,25.07,98.61,24.56Z"/><path class="cls-8" d="M31.42,68.1a14,14,0,0,1,9.6,4,3.94,3.94,0,0,1,.86,4.43,4,4,0,0,1-4,2.37,5.09,5.09,0,0,1-2.42-1,9.27,9.27,0,0,0-4.52-1.71,7.67,7.67,0,0,0-5.68,2.16,10.7,10.7,0,0,1-2.36,1.82,4,4,0,0,1-5.61-3.67,4.94,4.94,0,0,1,.84-2.34,13.24,13.24,0,0,1,6.55-4.86A17.59,17.59,0,0,1,31.42,68.1Z"/><path class="cls-8" d="M117.84,61.16a17.44,17.44,0,0,1,11.59,4.3,4,4,0,0,1-.33,6.63,3.76,3.76,0,0,1-3.58.2,30.69,30.69,0,0,1-3-1.67,12.09,12.09,0,0,0-5.44-1.53A10.89,10.89,0,0,0,110,72c-.71.59-1.36,1.26-2.09,1.83a3.74,3.74,0,0,1-5,.1,3.91,3.91,0,0,1-.81-5.32,14,14,0,0,1,4.49-4.29,19.6,19.6,0,0,1,9-3C116.35,61.21,117.09,61.17,117.84,61.16Z"/><path class="cls-3" d="M67.65,106.94h4.62c.15,0,.32,0,.43.14h-5s-.06,0,0-.08S67.63,106.94,67.65,106.94Z"/><path class="cls-4" d="M67.65,106.94v.12h-4s-.06,0,0-.07,0,0,0,0Z"/><path class="cls-9" d="M63.7,107v.11H60.29V107Z"/><path class="cls-8" d="M72.54,86.47a21.36,21.36,0,0,1-12.7-3.9,7,7,0,0,1-.9-.73c-1.86-1.8-1.58-4,.67-5.36a4.77,4.77,0,0,1,4.74,0c1.27.6,2.48,1.3,3.79,1.84A12.35,12.35,0,0,0,80.23,77.1c.65-.4,1.26-.89,1.9-1.32,1.71-1.17,3.49-1.61,5.41-.54a3.31,3.31,0,0,1,.81,5.52,17.52,17.52,0,0,1-6.5,4.1A26.18,26.18,0,0,1,72.54,86.47Z"/></g></g></svg>