<svg xmlns="http://www.w3.org/2000/svg" viewBox="0 0 152.59 109.95"><defs><style>.cls-1{fill:#6e7eba;}.cls-2{fill:#9ba5cc;}.cls-3{fill:#c1c7de;}.cls-4{fill:#e2e4ee;}.cls-5{fill:#e0e2ed;}.cls-6{fill:#fefefe;}.cls-7{fill:#6e7fba;}.cls-8{fill:#404e9c;}.cls-8,.cls-9{stroke:#42a0f0;}.cls-9{fill:none;stroke-linecap:round;}</style></defs><g id="Layer_2" data-name="Layer 2"><g id="Layer_1-2" data-name="Layer 1"><path class="cls-1" d="M60.29,109.82c-1.13,0-2.26,0-3.4,0l-12.31-.11c-2.83,0-5.65,0-8.45,0s-5.89,0-8.84-.11a20,20,0,0,1-7.08-1.75A34.33,34.33,0,0,1,3.93,94.06,25.49,25.49,0,0,1,.15,83.34,21.3,21.3,0,0,1,1.48,73a38.93,38.93,0,0,1,7.7-12.32A26.79,26.79,0,0,1,23,52.8a3.09,3.09,0,0,0,2.55-2.53,55.94,55.94,0,0,1,4.5-12.21,46.78,46.78,0,0,1,7.85-11.13A49.83,49.83,0,0,1,59.47,14a50.73,50.73,0,0,1,15.66-2.34,1,1,0,0,1,.77-.16c1.89.17,3.78.26,5.65.61a1.25,1.25,0,0,1,.85.37,47.84,47.84,0,0,1,13.28,4.62,49.62,49.62,0,0,1,13.77,10.16c1.06,1.13,2.06,2.29,3,3.5.32.08.47.34.65.57A53.63,53.63,0,0,1,117,37a3.07,3.07,0,0,0,2.55,1.86.94.94,0,0,1,.48.23c7.46,1,14.34,3.39,20.06,8.42a36,36,0,0,1,11.81,20,33.64,33.64,0,0,1,.74,7.15,35.09,35.09,0,0,1-8.54,22.81A34.65,34.65,0,0,1,129,108.12a33.5,33.5,0,0,1-9.72,1.72,4.76,4.76,0,0,1-1,0H101.07a1.4,1.4,0,0,0-.73.07H72.7a24.53,24.53,0,0,0-3.09-.07c-.65,0-1.3,0-2,0H63.72C62.58,109.83,61.44,109.92,60.29,109.82Z"/><path class="cls-2" d="M100.34,109.93c.15-.19.37-.13.57-.13h15.51a.09.09,0,0,1,0,.09s0,0,0,0Z"/><path class="cls-2" d="M67.65,109.81h4.62c.15,0,.32,0,.43.14h-5s-.06,0,0-.08S67.63,109.81,67.65,109.81Z"/><path class="cls-3" d="M67.65,109.81v.12h-4s-.06-.05,0-.07,0,0,0,0Z"/><path class="cls-4" d="M63.7,109.82v.11H60.29v-.11Z"/><path class="cls-3" d="M116.41,109.93a.28.28,0,0,1,0-.13h1.9s0,.06,0,.08,0,0,0,0Z"/><path class="cls-5" d="M118.31,109.93v-.11h1v.11Z"/><path class="cls-6" d="M98.61,27.43a27.73,27.73,0,0,1,5,4.93,71.35,71.35,0,0,1,4.89,7c.29.44.16.52-.28.64a38.9,38.9,0,0,0-8.07,3.17.88.88,0,0,0-.51,1.12l0,0c.81,2.62,4.61,4.43,7.07,3.3A21,21,0,0,1,112.85,46,27.66,27.66,0,0,1,128.27,48c9.53,4.28,15.49,11.56,17.25,21.89,1.72,10.08-1.31,18.81-8.58,26a27.46,27.46,0,0,1-7.9,5.36,3.26,3.26,0,0,1-1.38.3c-2.74,0-5.49,0-8.23.07-3.17.11-6.35,0-9.52.13s-6.27,0-9.39.14-6.35,0-9.52.13-6.22.08-9.33.12c-16,.23-31.95,0-47.92.14a27.91,27.91,0,0,1-7.74-.72c-7.19-2-12.7-6.18-15.7-13.14C7.6,82.16,8.45,76,12,70.27a20.59,20.59,0,0,1,13.18-9.68,22.67,22.67,0,0,1,8.17-.29c2.06.28,3.59-.21,4.67-2.11a6.87,6.87,0,0,0,1.06-3.4,1.64,1.64,0,0,0-1.44-1.91c-1.18-.3-2.37-.59-3.57-.81-.49-.09-.47-.25-.33-.62a14.59,14.59,0,0,1,3.19-4.62c1.63-1.76,3.48-3.32,5-5.19a6.07,6.07,0,0,0,1.24-2.09,1,1,0,0,0-.78-1.39A5.32,5.32,0,0,0,40.91,38c-.15,0-.37.06-.44-.11s.17-.3.31-.38a41,41,0,0,1,4.26-2,30.41,30.41,0,0,1,13.57-2.15,39.79,39.79,0,0,1,9.92,2.21c2.27.77,4.53,1.58,6.82,2.3a16.54,16.54,0,0,0,10.34-.2c2.29-.75,4.56-1.52,6.77-2.45a10.22,10.22,0,0,0,5.69-6.49C98.3,28.37,98.44,27.94,98.61,27.43Z"/><path class="cls-7" d="M117.84,64a17.44,17.44,0,0,1,11.59,4.3A4,4,0,0,1,129.1,75a3.76,3.76,0,0,1-3.58.2,30.69,30.69,0,0,1-3-1.67A12.1,12.1,0,0,0,117.05,72a10.85,10.85,0,0,0-7,2.9c-.71.59-1.36,1.26-2.09,1.83a3.74,3.74,0,0,1-5,.1,3.92,3.92,0,0,1-.81-5.33,14,14,0,0,1,4.49-4.28,19.6,19.6,0,0,1,9-3C116.35,64.08,117.09,64,117.84,64Z"/><path class="cls-7" d="M74.12,79.28a21.36,21.36,0,0,1,12.7,3.9,6.91,6.91,0,0,1,.89.73c1.87,1.8,1.59,4-.66,5.36a4.79,4.79,0,0,1-4.75,0c-1.26-.6-2.48-1.3-3.78-1.84a12.37,12.37,0,0,0-12.1,1.26c-.64.4-1.26.89-1.89,1.32-1.71,1.17-3.5,1.61-5.42.54a3.3,3.3,0,0,1-.8-5.52,17.48,17.48,0,0,1,6.49-4.1A26.24,26.24,0,0,1,74.12,79.28Z"/><path class="cls-7" d="M31.42,71a14,14,0,0,1,9.6,4,3.94,3.94,0,0,1,.86,4.43,4.06,4.06,0,0,1-4,2.37,5.09,5.09,0,0,1-2.42-1A9.27,9.27,0,0,0,30.91,79a7.67,7.67,0,0,0-5.68,2.16A10.7,10.7,0,0,1,22.87,83a4,4,0,0,1-5.61-3.67A4.94,4.94,0,0,1,18.1,77a13.32,13.32,0,0,1,6.55-4.87A17.78,17.78,0,0,1,31.42,71Z"/><path class="cls-8" d="M118.17,0V22.61"/><path class="cls-8" d="M117.23,5.13l4.29-1.07"/><path class="cls-8" d="M117.23,5.13l-5.37-1.07"/><path class="cls-8" d="M117.23,18l4.29,2.14"/><path class="cls-8" d="M117.23,18l-5.37,2.14"/><path class="cls-8" d="M127.91,5.75l-19.59,11.3"/><path class="cls-8" d="M123.1,8.47l5.43,1.36"/><path class="cls-8" d="M123.1,8.47,124.57,3"/><path class="cls-8" d="M112.65,14.5l-1.53,5.38"/><path class="cls-8" d="M112.65,14.5,107.16,13"/><path class="cls-8" d="M127.8,17.06,108.22,5.75"/><path class="cls-8" d="M123,14.25l1.53,5.38"/><path class="cls-8" d="M123,14.25l5.49-1.47"/><path class="cls-8" d="M112.59,8.22l-5.43,1.36"/><path class="cls-8" d="M112.59,8.22l-1.47-5.49"/><path class="cls-9" d="M140.1,22.44V41.79"/><path class="cls-9" d="M139.68,27.16l3.15-1.57"/><path class="cls-9" d="M139.68,27.16,135,25.59"/><path class="cls-9" d="M139.68,38.18l3.15,1.57"/><path class="cls-9" d="M139.68,38.18,135,39.75"/><path class="cls-9" d="M148.44,27.36,131.68,37"/><path class="cls-9" d="M144.32,29.69,149,30.85"/><path class="cls-9" d="M144.32,29.69l1.26-4.7"/><path class="cls-9" d="M135.38,34.85l-1.31,4.6"/><path class="cls-9" d="M135.38,34.85l-4.7-1.26"/><path class="cls-9" d="M148.34,37l-16.76-9.67"/><path class="cls-9" d="M144.27,34.63l1.31,4.61"/><path class="cls-9" d="M144.27,34.63,149,33.37"/><path class="cls-9" d="M135.33,29.47l-4.65,1.17"/><path class="cls-9" d="M135.33,29.47l-1.26-4.7"/></g></g></svg>