<svg xmlns="http://www.w3.org/2000/svg" xmlns:xlink="http://www.w3.org/1999/xlink" viewBox="0 0 168.15 111.5"><defs><style>.cls-1{fill:#fff;}.cls-2,.cls-4,.cls-5{fill-rule:evenodd;}.cls-3{fill:#f8dd6b;}.cls-4{fill:url(#linear-gradient);}.cls-5,.cls-7{fill:#a0b4df;}.cls-6{mask:url(#mask);}.cls-8{fill:#9ba5cc;}.cls-9{fill:#c1c7de;}.cls-10{fill:#e0e2ed;}.cls-11{fill:#6e7eba;}.cls-12{fill:#fefefe;}.cls-13{fill:#6e7fba;}.cls-14{fill:#e2e4ee;}</style><linearGradient id="linear-gradient" x1="160.74" y1="263.19" x2="127.02" y2="223.67" gradientTransform="matrix(1, 0, 0, -1, 0, 267.96)" gradientUnits="userSpaceOnUse"><stop offset="0" stop-color="#ffe600"/><stop offset="1" stop-color="#a90"/></linearGradient><mask id="mask" x="93.66" y="14.64" width="64.38" height="39.13" maskUnits="userSpaceOnUse"><g id="path-3-outside-1_1_83" data-name="path-3-outside-1 1 83"><rect class="cls-1" x="93.66" y="14.64" width="64.38" height="39.13"/><path class="cls-2" d="M139.84,32.57a17.78,17.78,0,0,1-.09,1.8,10.69,10.69,0,1,1,7,18.77H105.11a11,11,0,0,1-.06-22,17.43,17.43,0,0,1,34.79,1.44Z"/></g></mask></defs><g id="Layer_2" data-name="Layer 2"><g id="Layer_1-2" data-name="Layer 1"><circle class="cls-3" cx="145.42" cy="22.72" r="14.08"/><path class="cls-4" d="M145.42,0a1.23,1.23,0,0,0-1.23,1.23v4a1.24,1.24,0,0,0,2.47,0v-4A1.24,1.24,0,0,0,145.42,0Zm0,39a1.24,1.24,0,0,0-1.23,1.24v4a1.24,1.24,0,1,0,2.47,0v-4A1.25,1.25,0,0,0,145.42,39ZM155.1,3.5A1.23,1.23,0,0,1,156.78,3a1.24,1.24,0,0,1,.46,1.69l-2,3.42a1.23,1.23,0,1,1-2.14-1.23ZM137.27,36.84a1.24,1.24,0,0,0-1.69.45l-2,3.42A1.24,1.24,0,0,0,135.75,42l2-3.42A1.24,1.24,0,0,0,137.27,36.84Zm26.14-25.93a1.24,1.24,0,0,1,1.24,2.14l-3.42,2A1.23,1.23,0,1,1,160,12.89Zm-32.1,20a1.24,1.24,0,0,0-1.69-.45l-3.42,2a1.23,1.23,0,1,0,1.23,2.14l3.42-2A1.24,1.24,0,0,0,131.31,30.87Zm35.6-9.38a1.24,1.24,0,1,1,0,2.47H163a1.24,1.24,0,1,1,0-2.47Zm-37.79,1.23a1.23,1.23,0,0,0-1.23-1.23h-4a1.24,1.24,0,0,0,0,2.47h4A1.23,1.23,0,0,0,129.12,22.72Zm35.53,9.68a1.24,1.24,0,0,1-1.24,2.14l-3.42-2a1.24,1.24,0,1,1,1.24-2.14ZM131.31,14.57a1.23,1.23,0,0,0-.46-1.68l-3.42-2a1.23,1.23,0,1,0-1.23,2.14l3.42,2A1.23,1.23,0,0,0,131.31,14.57Zm25.93,26.14a1.24,1.24,0,0,1-.46,1.69A1.23,1.23,0,0,1,155.1,42l-2-3.42a1.24,1.24,0,1,1,2.14-1.24Zm-20-32.1a1.24,1.24,0,0,0,.45-1.69l-2-3.42a1.23,1.23,0,1,0-2.14,1.23l2,3.42A1.24,1.24,0,0,0,137.27,8.61Z"/><path class="cls-5" d="M139.84,32.57a17.78,17.78,0,0,1-.09,1.8,10.69,10.69,0,1,1,7,18.77H105.11a11,11,0,0,1-.06-22,17.43,17.43,0,0,1,34.79,1.44Z"/><g class="cls-6"><path class="cls-7" d="M139.75,34.37l-.51,0-.13,1.27,1-.83ZM105.11,53.14h-.5v.51h.5Zm0,0h.51v-.5h-.5Zm-.06-22v.5h.46l0-.46Zm35.2,3.3q.09-.91.09-1.86h-1a16.8,16.8,0,0,1-.09,1.75Zm6.51-3.18A11.18,11.18,0,0,0,139.42,34l.66.77a10.12,10.12,0,0,1,6.68-2.5ZM158,42.45a11.2,11.2,0,0,0-11.2-11.2v1A10.19,10.19,0,0,1,157,42.45Zm-11.2,11.2A11.21,11.21,0,0,0,158,42.45h-1a10.19,10.19,0,0,1-10.19,10.19Zm0-1H105.19v1h41.57Zm-41.58,1h0v-1h0Zm0,0h0v-1h0Zm0-1h-.06v1h.06Zm.45.5Zm-12-11a11.52,11.52,0,0,0,11.45,11.52v-1A10.5,10.5,0,0,1,94.67,42.13ZM105,30.62A11.52,11.52,0,0,0,93.66,42.13h1a10.51,10.51,0,0,1,10.38-10.5Zm17.37-16a17.92,17.92,0,0,0-17.86,16.45l1,.08a16.93,16.93,0,0,1,16.86-15.52Zm17.93,17.93a17.93,17.93,0,0,0-17.93-17.93v1a16.92,16.92,0,0,1,16.92,16.92Z"/></g><path class="cls-8" d="M100.34,111.48c.15-.19.37-.13.57-.13h15.51a.09.09,0,0,1,0,.09s0,0,0,0Z"/><path class="cls-9" d="M116.41,111.48a.24.24,0,0,1,0-.12h1.9s0,0,0,.07,0,0,0,0Z"/><path class="cls-10" d="M118.31,111.48v-.11h1v.11Z"/><path class="cls-11" d="M60.29,111.37c-1.13,0-2.26,0-3.4-.05l-12.31-.11c-2.83,0-5.65,0-8.45,0s-5.89,0-8.84-.11a20,20,0,0,1-7.08-1.75A34.36,34.36,0,0,1,3.93,95.62,25.59,25.59,0,0,1,.15,84.9,21.34,21.34,0,0,1,1.48,74.56a38.93,38.93,0,0,1,7.7-12.32A26.79,26.79,0,0,1,23,54.35a3.09,3.09,0,0,0,2.55-2.53,55.94,55.94,0,0,1,4.5-12.21,46.78,46.78,0,0,1,7.85-11.13,49.83,49.83,0,0,1,21.53-13,50.73,50.73,0,0,1,15.66-2.34A1.1,1.1,0,0,1,75.9,13a56.4,56.4,0,0,1,5.65.62,1.2,1.2,0,0,1,.85.36A48.16,48.16,0,0,1,95.68,18.6a49.62,49.62,0,0,1,13.77,10.16c1.06,1.13,2.06,2.29,3,3.5.32.08.47.34.65.57A53.63,53.63,0,0,1,117,38.57a3.07,3.07,0,0,0,2.55,1.86.88.88,0,0,1,.48.24c7.46.95,14.34,3.38,20.06,8.41a36,36,0,0,1,11.81,20,33.71,33.71,0,0,1,.74,7.15,35.07,35.07,0,0,1-8.54,22.81A34.65,34.65,0,0,1,129,109.67a33.5,33.5,0,0,1-9.72,1.72,4.76,4.76,0,0,1-1,0H101.07a1.4,1.4,0,0,0-.73.07H72.7a24.53,24.53,0,0,0-3.09-.07c-.65,0-1.3,0-2,0H63.72C62.58,111.38,61.44,111.47,60.29,111.37Z"/><path class="cls-12" d="M98.61,29a27.73,27.73,0,0,1,5,4.93,71.35,71.35,0,0,1,4.89,7c.29.44.16.52-.28.64a38.38,38.38,0,0,0-8.07,3.18.86.86,0,0,0-.51,1.11l0,.05c.81,2.62,4.61,4.43,7.07,3.3a21.34,21.34,0,0,1,6.07-1.64,27.66,27.66,0,0,1,15.42,2.07c9.53,4.28,15.49,11.56,17.25,21.89,1.72,10.09-1.31,18.81-8.58,26a27.46,27.46,0,0,1-7.9,5.36,3.12,3.12,0,0,1-1.38.3c-2.74,0-5.49,0-8.23.07-3.17.11-6.35,0-9.52.13s-6.27,0-9.39.14-6.35,0-9.52.13-6.22.08-9.33.12c-16,.23-31.95,0-47.92.14a27.91,27.91,0,0,1-7.74-.72c-7.19-2-12.7-6.18-15.7-13.14C7.6,83.71,8.45,77.58,12,71.82a20.59,20.59,0,0,1,13.18-9.68,22.67,22.67,0,0,1,8.17-.29c2.06.28,3.59-.21,4.67-2.11a6.87,6.87,0,0,0,1.06-3.4,1.64,1.64,0,0,0-1.44-1.91c-1.18-.3-2.37-.59-3.57-.81-.49-.09-.47-.25-.33-.62a14.59,14.59,0,0,1,3.19-4.62c1.63-1.76,3.48-3.32,5-5.19a6,6,0,0,0,1.24-2.09,1,1,0,0,0-.78-1.39,5.32,5.32,0,0,0-1.48-.15c-.15,0-.37.06-.44-.11s.17-.3.31-.37a39,39,0,0,1,4.26-2A30.41,30.41,0,0,1,58.61,35a39.79,39.79,0,0,1,9.92,2.21c2.27.77,4.53,1.58,6.82,2.3a16.54,16.54,0,0,0,10.34-.2c2.29-.74,4.56-1.52,6.77-2.45a10.22,10.22,0,0,0,5.69-6.49C98.3,29.93,98.44,29.49,98.61,29Z"/><path class="cls-13" d="M31.42,72.52a14,14,0,0,1,9.6,4,3.94,3.94,0,0,1,.86,4.43,4,4,0,0,1-4,2.37,5.09,5.09,0,0,1-2.42-1,9.27,9.27,0,0,0-4.52-1.71,7.67,7.67,0,0,0-5.68,2.16,10.7,10.7,0,0,1-2.36,1.82,4,4,0,0,1-5.61-3.67,4.94,4.94,0,0,1,.84-2.34,13.24,13.24,0,0,1,6.55-4.86A17.59,17.59,0,0,1,31.42,72.52Z"/><path class="cls-13" d="M117.84,65.58a17.44,17.44,0,0,1,11.59,4.3,4,4,0,0,1-.33,6.63,3.76,3.76,0,0,1-3.58.2,30.69,30.69,0,0,1-3-1.67,12.09,12.09,0,0,0-5.44-1.53,10.89,10.89,0,0,0-7,2.89c-.71.59-1.36,1.26-2.09,1.83a3.74,3.74,0,0,1-5,.1,3.91,3.91,0,0,1-.81-5.32,14,14,0,0,1,4.49-4.29,19.6,19.6,0,0,1,9-3C116.35,65.63,117.09,65.59,117.84,65.58Z"/><path class="cls-8" d="M67.65,111.36h4.62c.15,0,.32,0,.43.14h-5s-.06,0,0-.08S67.63,111.36,67.65,111.36Z"/><path class="cls-9" d="M67.65,111.36v.12h-4s-.06,0,0-.07,0,0,0,0Z"/><path class="cls-14" d="M63.7,111.37v.11H60.29v-.11Z"/><path class="cls-13" d="M72.54,90.89A21.36,21.36,0,0,1,59.84,87a7,7,0,0,1-.9-.73c-1.86-1.8-1.58-4.05.67-5.36a4.77,4.77,0,0,1,4.74,0c1.27.6,2.48,1.3,3.79,1.84a12.35,12.35,0,0,0,12.09-1.26c.65-.4,1.26-.89,1.9-1.32,1.71-1.17,3.49-1.61,5.41-.54a3.31,3.31,0,0,1,.81,5.52,17.52,17.52,0,0,1-6.5,4.1A26.18,26.18,0,0,1,72.54,90.89Z"/></g></g></svg>