<?xml version="1.0" encoding="utf-8"?>

<!DOCTYPE svg PUBLIC "-//W3C//DTD SVG 1.1//EN" "http://www.w3.org/Graphics/SVG/1.1/DTD/svg11.dtd">
<!-- Uploaded to: SVG Repo, www.svgrepo.com, Generator: SVG Repo Mixer Tools -->
<svg height="800px" width="800px" version="1.1" id="_x32_" xmlns="http://www.w3.org/2000/svg" xmlns:xlink="http://www.w3.org/1999/xlink" 
	 viewBox="0 0 512 512"  xml:space="preserve">
<style type="text/css">
	.st0{fill:#000000;}
</style>
<g>
	<path class="st0" d="M255.999,82.493c-15.204,0-28.948,6.933-38.678,17.853c-9.758,10.906-15.678,25.84-15.678,42.226
		c-0.04,16.374,6.014,30.36,15.974,40.024c9.934,9.704,23.597,15.062,38.382,15.042c14.785,0.021,28.448-5.338,38.382-15.042
		c9.96-9.663,16.001-23.65,15.987-40.024c0-16.386-5.933-31.32-15.69-42.226C284.947,89.426,271.203,82.486,255.999,82.493z"/>
	<path class="st0" d="M372.876,202.449l1.014,0.676c0.081,0.054,0.135,0.095,0.216,0.142L372.876,202.449z"/>
	<path class="st0" d="M467.762,476.288v-1.67l-0.257-0.777c-0.311-1.98-1.23-7.831-2.514-16.197
		c-4.879-31.489-15.244-98.71-20.002-131.382c-3.203-21.927-10.19-45.2-21.664-66.823c-11.487-21.596-27.597-41.672-49.22-56.166
		l-0.216-0.149c-5.122-3.406-9.325-6.041-11.703-7.825l-0.054-0.048c-1.109-0.817-1.811-1.452-2.176-1.825
		c-0.108-0.358-0.149-0.655-0.176-1.047c0.027-0.77,0.149-2.04,1.311-4.595v-0.013c8.068-17.576,12.568-37.395,12.568-58.268
		c0-35.158-12.73-67.283-33.777-90.852C318.882,15.096,289.069-0.006,255.999,0c-33.07-0.006-62.883,15.096-83.885,38.659
		l0.013-0.007c-21.056,23.569-33.773,55.694-33.786,90.852c0,20.886,4.514,40.692,12.569,58.254
		c1.176,2.595,1.284,3.866,1.297,4.636c-0.014,0.399-0.054,0.669-0.149,1c-0.284,0.318-0.878,0.912-2.216,1.879l-0.189,0.148
		c-2.406,1.784-6.622,4.42-11.744,7.852h0.013c-21.65,14.488-37.746,34.57-49.233,56.166c-0.027,0.034-0.04,0.068-0.054,0.101
		l-1.162,2.183l1.162-2.176c-11.447,21.59-18.434,44.822-21.624,66.708c-3.162,21.772-8.825,58.924-13.69,90.588
		c-2.433,15.826-4.676,30.293-6.298,40.8c-0.811,5.251-1.473,9.514-1.933,12.461c-0.23,1.473-0.405,2.622-0.526,3.406l-0.055,0.325
		l-0.257,0.777v1.669c-0.094,0.851-0.202,1.689-0.202,2.608v0.115c0,6.481,2.23,12.751,6.298,17.792l0.013,0.014
		c4.947,6.136,12.164,9.906,19.893,10.609l48.572,4.46l0.176,0.014c0.878,0.061,1.703,0.094,2.486,0.094
		c6.987,0,13.542-2.493,18.624-6.723v0.006c3.257-2.716,5.852-6.244,7.649-10.258c1.122,1.459,2.311,2.865,3.636,4.136
		c6.987,6.778,16.609,10.913,27.056,10.92h155.093c10.447,0,20.069-4.142,27.06-10.92c1.324-1.27,2.514-2.676,3.635-4.136
		c1.811,4.014,4.406,7.542,7.676,10.258c5.082,4.237,11.622,6.73,18.596,6.73h0.324l1.717-0.081l0.23-0.007l48.977-4.493
		c7.73-0.703,14.92-4.474,19.88-10.582l0.717-0.879l0.351-0.702c3.339-4.751,5.244-10.386,5.244-16.252
		C467.951,478.078,467.843,477.186,467.762,476.288z M441.989,480.943c-0.581,0.716-1.5,1.23-2.541,1.318l-48.49,4.44l-0.446,0.027
		c-0.946,0-1.797-0.338-2.432-0.871c-0.649-0.534-1.028-1.196-1.149-1.966l-24.381-164.689l-3.149-2.385l-5.301-4.007l-7.27,7.616
		v151.728c-0.014,3.44-1.419,6.514-3.811,8.845c-2.406,2.338-5.717,3.798-9.474,3.798H178.452c-3.757,0-7.068-1.459-9.474-3.798
		c-2.392-2.331-3.798-5.405-3.798-8.845V320.424l-2.703-2.832l-4.581-4.784l-8.447,6.385l-24.38,164.696
		c-0.122,0.77-0.5,1.412-1.135,1.966c-0.649,0.534-1.5,0.871-2.447,0.871l-0.365-0.013l-48.571-4.454
		c-1.054-0.088-1.96-0.601-2.541-1.318c-0.473-0.594-0.703-1.263-0.703-1.939l0.041-0.446v0.02c0,0,16.285-104.813,22.664-148.681
		c2.784-19.224,9.028-39.908,18.974-58.606c9.96-18.704,23.556-35.381,40.976-47.031c4.771-3.203,9.082-5.838,12.934-8.69
		c3.824-2.864,7.406-6.094,9.798-10.69l0.108-0.203l0.095-0.209c1.622-3.683,2.581-7.778,2.581-12.076
		c0-4.919-1.216-10.001-3.595-15.163c-6.555-14.278-10.284-30.489-10.284-47.726c0-29.036,10.541-55.201,27.354-74
		c16.853-18.826,39.774-30.225,65.046-30.239c25.272,0.014,48.193,11.413,65.046,30.239c16.812,18.799,27.353,44.964,27.353,74
		c0,17.238-3.716,33.449-10.271,47.726c-2.378,5.156-3.608,10.244-3.608,15.177c0,4.284,0.959,8.379,2.595,12.068l0.094,0.203
		l0.095,0.203c2.392,4.595,5.974,7.825,9.798,10.69c3.865,2.852,8.163,5.487,12.95,8.69c17.42,11.65,31.016,28.327,40.962,47.031
		c9.947,18.697,16.191,39.382,18.988,58.613c6.365,43.855,22.664,148.654,22.664,148.654l0,0l0.027,0.446
		C442.693,479.68,442.463,480.349,441.989,480.943z"/>
	<polygon class="st0" points="359.862,499.864 360.605,499.154 360.591,499.161 	"/>
	<path class="st0" d="M255.134,236.857c-2.744,0-5.406,1.108-7.338,3.041c-1.932,1.933-3.041,4.608-3.041,7.338
		c0,2.73,1.108,5.406,3.041,7.338c1.932,1.933,4.595,3.041,7.338,3.041c2.73,0,5.405-1.108,7.338-3.041
		c1.932-1.932,3.041-4.609,3.041-7.338c0-2.73-1.109-5.406-3.041-7.338C260.539,237.965,257.863,236.857,255.134,236.857z"/>
	<path class="st0" d="M255.134,372.165c-5.744,0-10.379,4.649-10.379,10.379c0,5.73,4.635,10.379,10.379,10.379
		c5.73,0,10.379-4.649,10.379-10.379C265.513,376.814,260.864,372.165,255.134,372.165z"/>
	<path class="st0" d="M255.134,304.511c-5.744,0-10.379,4.649-10.379,10.379c0,5.73,4.635,10.379,10.379,10.379
		c5.73,0,10.379-4.649,10.379-10.379C265.513,309.16,260.864,304.511,255.134,304.511z"/>
	<path class="st0" d="M255.134,439.818c-2.744,0-5.406,1.108-7.338,3.041c-1.932,1.933-3.041,4.608-3.041,7.338
		c0,2.73,1.108,5.406,3.041,7.339c1.932,1.932,4.595,3.04,7.338,3.04c2.73,0,5.405-1.108,7.338-3.04
		c1.932-1.933,3.041-4.608,3.041-7.339c0-2.73-1.109-5.406-3.041-7.338C260.539,440.927,257.863,439.818,255.134,439.818z"/>
</g>
</svg>