<svg xmlns="http://www.w3.org/2000/svg" viewBox="0 0 152.61 106.03"><defs><style>.cls-1,.cls-2{fill:#c1c1c1;}.cls-2{fill-opacity:0.5;}.cls-3{fill:#6e7eba;}.cls-4{fill:#9ba5cc;}.cls-5{fill:#c1c7de;}.cls-6{fill:#e2e4ee;}.cls-7{fill:#e0e2ed;}.cls-8{fill:#fefefe;}.cls-9{fill:#6e7fba;}.cls-10{fill:#42a0f0;}.cls-11{fill:#fff;}</style></defs><g id="Layer_2" data-name="Layer 2"><g id="Layer_1-2" data-name="Layer 1"><path class="cls-1" d="M131.72,28.67c-.27,0-.54,0-.82,0H111.74a10,10,0,0,1-3.85-.76,10,10,0,0,1-5.44-5.42,10,10,0,0,1,0-7.69,10,10,0,0,1,5.44-5.42,10,10,0,0,1,3.85-.76h7.14A15.16,15.16,0,0,1,132.75,0c8.33,0,15.09,6.43,15.09,14.35s-6.76,14.36-15.09,14.36C132.4,28.71,132.06,28.7,131.72,28.67Z"/><path class="cls-2" d="M132.75,28.57a15.6,15.6,0,0,0,5.82-1.12,15.63,15.63,0,0,0,2.54-1.31,15,15,0,0,0,2.21-1.74,14.05,14.05,0,0,0,3.21-4.52,13.7,13.7,0,0,0,.87-8.39,14.12,14.12,0,0,0-.87-2.67,14.43,14.43,0,0,0-1.38-2.41,14.57,14.57,0,0,0-1.83-2.11,14.92,14.92,0,0,0-2.21-1.73,14.19,14.19,0,0,0-2.54-1.31,15.13,15.13,0,0,0-2.81-.83,15.91,15.91,0,0,0-3-.29,15.43,15.43,0,0,0-8.32,2.4,14.72,14.72,0,0,0-3.17,2.71A14.24,14.24,0,0,0,119,8.72l0,.08h-7.23a9.74,9.74,0,0,0-3.85.78,10.12,10.12,0,0,0-1.68.91,9.87,9.87,0,0,0-1.46,1.21,10,10,0,0,0-1.21,1.46,10.47,10.47,0,0,0-.91,1.68,10,10,0,0,0,0,7.69,10.47,10.47,0,0,0,.91,1.68,10,10,0,0,0,1.21,1.46,9.87,9.87,0,0,0,1.46,1.21,10.12,10.12,0,0,0,1.68.91,9.74,9.74,0,0,0,3.85.78H130.9a7.32,7.32,0,0,0,.81,0h0C132.06,28.56,132.41,28.57,132.75,28.57Zm0,.14c-.35,0-.69,0-1,0s-.54,0-.82,0H111.74a10,10,0,0,1,0-20h7.14A15.16,15.16,0,0,1,132.75,0c8.33,0,15.09,6.43,15.09,14.35S141.08,28.71,132.75,28.71Z"/><path class="cls-3" d="M60.21,105.79l-3.4-.06-12.32-.15c-2.82,0-5.64,0-8.44-.07s-5.89,0-8.84-.13a20,20,0,0,1-7.08-1.77A34.32,34.32,0,0,1,3.89,89.87,25.58,25.58,0,0,1,.14,79.14,21.43,21.43,0,0,1,1.5,68.81a38.84,38.84,0,0,1,7.74-12.3,26.89,26.89,0,0,1,13.88-7.85,3.1,3.1,0,0,0,2.56-2.52,56,56,0,0,1,4.53-12.2,47.31,47.31,0,0,1,7.88-11.1A49.83,49.83,0,0,1,59.67,9.92,50.34,50.34,0,0,1,75.33,7.63a1.1,1.1,0,0,1,.77-.17c1.89.18,3.78.28,5.65.64a1.16,1.16,0,0,1,.84.36,48.25,48.25,0,0,1,13.28,4.66,49.82,49.82,0,0,1,13.74,10.2q1.58,1.7,3,3.51a1.22,1.22,0,0,1,.65.57,52.69,52.69,0,0,1,3.83,5.75A3.06,3.06,0,0,0,119.62,35a.88.88,0,0,1,.48.24c7.46,1,14.33,3.42,20,8.47a35.89,35.89,0,0,1,11.75,20.05,33.7,33.7,0,0,1,.73,7.15A35.14,35.14,0,0,1,144,93.72a34.62,34.62,0,0,1-15.09,10.56,33.14,33.14,0,0,1-9.72,1.7,4.79,4.79,0,0,1-1,0L101,106a1.39,1.39,0,0,0-.73.06L72.61,106a22.7,22.7,0,0,0-3.09-.08c-.64,0-1.3,0-2,0H63.63C62.5,105.81,61.35,105.89,60.21,105.79Z"/><path class="cls-4" d="M100.4,106c.15-.2.37-.14.57-.14h15.5s0,.06,0,.09,0,0,0,0Z"/><path class="cls-4" d="M67.71,105.83h4.61c.16,0,.33,0,.44.14H67.71s0,0,0-.08S67.69,105.83,67.71,105.83Z"/><path class="cls-5" d="M67.71,105.83V106H63.76s-.06,0,0-.08,0,0,0,0Z"/><path class="cls-6" d="M63.76,105.83V106H60.35v-.12Z"/><path class="cls-5" d="M116.47,106a.29.29,0,0,1,0-.13h1.9s0,.05,0,.08,0,0,0,0Z"/><path class="cls-7" d="M118.37,106v-.12h.95V106Z"/><path class="cls-8" d="M98.66,23.44a27.84,27.84,0,0,1,5.06,4.94,74.82,74.82,0,0,1,4.89,7c.29.45.16.52-.28.65a38.35,38.35,0,0,0-8.07,3.17.87.87,0,0,0-.51,1.12s0,0,0,0c.81,2.63,4.61,4.44,7.07,3.31A21,21,0,0,1,112.91,42,27.67,27.67,0,0,1,128.33,44c9.52,4.29,15.48,11.57,17.25,21.9C147.3,76,144.27,84.75,137,92a27.49,27.49,0,0,1-7.9,5.37,3.26,3.26,0,0,1-1.38.3c-2.74,0-5.49,0-8.23.07-3.18.1-6.36,0-9.53.13s-6.26,0-9.38.13-6.36,0-9.53.14-6.21.07-9.32.12c-16,.23-31.95,0-47.92.14a27.91,27.91,0,0,1-7.74-.72c-7.19-2-12.7-6.18-15.7-13.15C7.66,78.18,8.51,72,12,66.29a20.6,20.6,0,0,1,13.19-9.68,22.18,22.18,0,0,1,8.16-.29c2.06.28,3.6-.21,4.68-2.12a6.84,6.84,0,0,0,1.06-3.4,1.65,1.65,0,0,0-1.44-1.91c-1.18-.3-2.38-.58-3.57-.8-.49-.09-.47-.25-.33-.63A14.71,14.71,0,0,1,37,42.84c1.63-1.76,3.48-3.31,5-5.19a6.05,6.05,0,0,0,1.25-2.08,1,1,0,0,0-.79-1.39A5.25,5.25,0,0,0,41,34c-.15,0-.36.06-.43-.11s.17-.3.31-.38a41,41,0,0,1,4.26-1.95,30.56,30.56,0,0,1,13.57-2.16,39.81,39.81,0,0,1,9.92,2.22c2.27.77,4.53,1.58,6.82,2.29a16.61,16.61,0,0,0,10.34-.19C88,33,90.3,32.23,92.51,31.3a10.23,10.23,0,0,0,5.7-6.49C98.36,24.39,98.5,24,98.66,23.44Z"/><path class="cls-9" d="M117.89,60.05a17.51,17.51,0,0,1,11.6,4.29,4,4,0,0,1-.33,6.63,3.76,3.76,0,0,1-3.58.21,30.77,30.77,0,0,1-3-1.68A12.25,12.25,0,0,0,117.11,68a10.83,10.83,0,0,0-7,2.9c-.72.59-1.37,1.26-2.1,1.83a3.73,3.73,0,0,1-5,.09,3.91,3.91,0,0,1-.81-5.32,14,14,0,0,1,4.49-4.29,19.59,19.59,0,0,1,9-3A21.15,21.15,0,0,1,117.89,60.05Z"/><path class="cls-9" d="M74.18,75.3a21.37,21.37,0,0,1,12.7,3.89,7.76,7.76,0,0,1,.89.74c1.87,1.8,1.59,4-.67,5.35a4.8,4.8,0,0,1-4.74,0c-1.27-.61-2.48-1.31-3.78-1.85a12.39,12.39,0,0,0-12.1,1.26c-.65.41-1.26.9-1.9,1.33-1.7,1.16-3.49,1.61-5.41.53A3.3,3.3,0,0,1,58.36,81a17.63,17.63,0,0,1,6.5-4.11A26.19,26.19,0,0,1,74.18,75.3Z"/><path class="cls-9" d="M31.48,67a14.05,14.05,0,0,1,9.6,4,4,4,0,0,1,.86,4.44,4,4,0,0,1-4,2.36,5.07,5.07,0,0,1-2.42-1A9.38,9.38,0,0,0,31,75a7.69,7.69,0,0,0-5.69,2.16A10.76,10.76,0,0,1,22.93,79a4,4,0,0,1-5.61-3.67A4.89,4.89,0,0,1,18.15,73a13.39,13.39,0,0,1,6.56-4.87A17.78,17.78,0,0,1,31.48,67Z"/><path class="cls-10" d="M126.23,14.65c.77,0,8.61,12.25,8.61,17a8.54,8.54,0,0,1-2.52,6.09,8.61,8.61,0,0,1-14.7-6.09C117.62,26.9,125.46,14.64,126.23,14.65Z"/><path class="cls-11" d="M119.66,34.88c.86.26,2-.82,2.45-2.42s.18-3.11-.68-3.37-2,.82-2.44,2.42S118.8,34.62,119.66,34.88Z"/></g></g></svg>