<svg xmlns="http://www.w3.org/2000/svg" viewBox="0 0 170.5 107.7"><defs><style>.cls-1{fill:#9ba5cc;}.cls-2,.cls-3{fill:#c1c1c1;}.cls-3{fill-opacity:0.5;}.cls-4{fill:#a8a8a8;stroke:#fff;stroke-linecap:round;stroke-width:4px;}.cls-5{fill:#c1c7de;}.cls-6{fill:#6e7eba;}.cls-7{fill:#fefefe;}.cls-8{fill:#6e7fba;}.cls-9{fill:#e2e4ee;}.cls-10{fill:#e0e2ed;}</style></defs><g id="Layer_2" data-name="Layer 2"><g id="Layer_1-2" data-name="Layer 1"><path class="cls-1" d="M100.34,107.68c.15-.19.37-.13.57-.13h15.51a.09.09,0,0,1,0,.09s0,0,0,0Z"/><path class="cls-1" d="M67.65,107.56h4.62c.15,0,.32,0,.43.14h-5s-.06,0,0-.08S67.63,107.56,67.65,107.56Z"/><path class="cls-2" d="M145.52,44.42c-.42,0-.84.06-1.27.06H114.56a15.53,15.53,0,1,1,0-31.06h11.07A23.47,23.47,0,0,1,147.11,0C160,0,170.5,10,170.5,22.24S160,44.48,147.11,44.48Q146.3,44.48,145.52,44.42Z"/><path class="cls-3" d="M147.11,44.26a24.3,24.3,0,0,0,9-1.73,23.25,23.25,0,0,0,7.37-4.72,23,23,0,0,0,2.83-3.26,22.37,22.37,0,0,0,2.13-3.74,20.88,20.88,0,0,0,1.35-4.14,21.16,21.16,0,0,0,0-8.87,21,21,0,0,0-1.35-4.13,21.89,21.89,0,0,0-5-7A23.25,23.25,0,0,0,156.13,2,24.18,24.18,0,0,0,151.78.66a25.13,25.13,0,0,0-4.67-.44,24,24,0,0,0-12.89,3.71,22.79,22.79,0,0,0-4.91,4.21,21.78,21.78,0,0,0-3.48,5.37l-.06.13H114.56a15.18,15.18,0,0,0-6,1.2,15.92,15.92,0,0,0-2.6,1.41,15.29,15.29,0,0,0-4.14,4.14,15.92,15.92,0,0,0-1.41,2.6,15.4,15.4,0,0,0,0,11.92,15.92,15.92,0,0,0,1.41,2.6A15.29,15.29,0,0,0,106,41.65a15.92,15.92,0,0,0,2.6,1.41,15.36,15.36,0,0,0,6,1.2h29.69c.42,0,.84,0,1.25,0h0C146.05,44.24,146.58,44.26,147.11,44.26Zm0,.22q-.81,0-1.59-.06c-.42,0-.84.06-1.27.06H114.56a15.53,15.53,0,0,1,0-31.06h11.07A23.47,23.47,0,0,1,147.11,0C160,0,170.5,10,170.5,22.24S160,44.48,147.11,44.48Z"/><path class="cls-4" d="M115.83,22s3.18,2.86,5.66,2.77c3.11-.12,3.64-2.61,6.52-2.77,3,0,3.33,2.62,6.6,2.77,2.93,0,4.17-2.72,7-2.77s5.77,2.77,5.77,2.77"/><path class="cls-4" d="M127.28,31.7s3.17,2.86,5.65,2.76c3.11-.12,3.64-2.61,6.53-2.76,3,0,3.32,2.61,6.59,2.76,2.93,0,4.17-2.71,7-2.76s5.77,2.76,5.77,2.76"/><path class="cls-4" d="M109.14,41.42s3.17,2.85,5.66,2.76c3.1-.12,3.64-2.61,6.52-2.76,3,0,3.32,2.61,6.59,2.76,2.93,0,4.17-2.72,7-2.76s5.76,2.76,5.76,2.76"/><path class="cls-5" d="M67.65,107.56v.12h-4s-.06-.05,0-.07,0,0,0,0Z"/><path class="cls-6" d="M60.29,107.57c-1.13,0-2.26,0-3.4,0l-12.31-.11c-2.83,0-5.65,0-8.45,0s-5.89,0-8.84-.11a20,20,0,0,1-7.08-1.75A34.33,34.33,0,0,1,3.93,91.81,25.49,25.49,0,0,1,.15,81.09,21.31,21.31,0,0,1,1.48,70.76a38.93,38.93,0,0,1,7.7-12.32A26.79,26.79,0,0,1,23,50.55,3.09,3.09,0,0,0,25.59,48a55.94,55.94,0,0,1,4.5-12.21,46.78,46.78,0,0,1,7.85-11.13,49.83,49.83,0,0,1,21.53-13A50.73,50.73,0,0,1,75.13,9.36a1,1,0,0,1,.77-.16,56.4,56.4,0,0,1,5.65.62,1.2,1.2,0,0,1,.85.36A48.16,48.16,0,0,1,95.68,14.8,49.62,49.62,0,0,1,109.45,25c1.06,1.13,2.06,2.29,3,3.5.32.08.47.34.65.57A53.63,53.63,0,0,1,117,34.77a3.07,3.07,0,0,0,2.55,1.86.94.94,0,0,1,.48.23c7.46,1,14.34,3.39,20.06,8.42a36,36,0,0,1,11.81,20,33.64,33.64,0,0,1,.74,7.15,35.09,35.09,0,0,1-8.54,22.81A34.65,34.65,0,0,1,129,105.87a33.5,33.5,0,0,1-9.72,1.72,4.76,4.76,0,0,1-1,0H101.07a1.4,1.4,0,0,0-.73.07H72.7a24.53,24.53,0,0,0-3.09-.07c-.65,0-1.3,0-2,0H63.72C62.58,107.58,61.44,107.67,60.29,107.57Z"/><path class="cls-7" d="M98.61,25.18a27.73,27.73,0,0,1,5,4.93,71.35,71.35,0,0,1,4.89,7c.29.44.16.52-.28.64a38.38,38.38,0,0,0-8.07,3.18A.86.86,0,0,0,99.69,42l0,0c.81,2.62,4.61,4.43,7.07,3.3a21.34,21.34,0,0,1,6.07-1.64,27.66,27.66,0,0,1,15.42,2.07c9.53,4.28,15.49,11.56,17.25,21.89,1.72,10.09-1.31,18.81-8.58,26a27.46,27.46,0,0,1-7.9,5.36,3.12,3.12,0,0,1-1.38.3c-2.74,0-5.49,0-8.23.07-3.17.11-6.35,0-9.52.13s-6.27,0-9.39.14-6.35,0-9.52.13-6.22.08-9.33.12c-16,.23-31.95,0-47.92.14A27.91,27.91,0,0,1,26,99.36c-7.19-2-12.7-6.18-15.7-13.14C7.6,79.91,8.45,73.78,12,68a20.59,20.59,0,0,1,13.18-9.68,22.67,22.67,0,0,1,8.17-.29c2.06.28,3.59-.21,4.67-2.11a6.87,6.87,0,0,0,1.06-3.4,1.64,1.64,0,0,0-1.44-1.91c-1.18-.3-2.37-.59-3.57-.81-.49-.09-.47-.25-.33-.62a14.59,14.59,0,0,1,3.19-4.62c1.63-1.76,3.48-3.32,5-5.19a6,6,0,0,0,1.24-2.09,1,1,0,0,0-.78-1.39,5.32,5.32,0,0,0-1.48-.15c-.15,0-.37.06-.44-.11s.17-.3.31-.37a39,39,0,0,1,4.26-2,30.41,30.41,0,0,1,13.57-2.15,39.79,39.79,0,0,1,9.92,2.21c2.27.77,4.53,1.58,6.82,2.3a16.54,16.54,0,0,0,10.34-.2C88,34.74,90.25,34,92.46,33a10.22,10.22,0,0,0,5.69-6.49C98.3,26.12,98.44,25.69,98.61,25.18Z"/><path class="cls-8" d="M31.42,68.72a14,14,0,0,1,9.6,4,3.94,3.94,0,0,1,.86,4.43,4,4,0,0,1-4,2.37,5.09,5.09,0,0,1-2.42-1,9.27,9.27,0,0,0-4.52-1.71,7.67,7.67,0,0,0-5.68,2.16,10.7,10.7,0,0,1-2.36,1.82,4,4,0,0,1-5.61-3.67,4.94,4.94,0,0,1,.84-2.34,13.24,13.24,0,0,1,6.55-4.86A17.59,17.59,0,0,1,31.42,68.72Z"/><path class="cls-9" d="M63.7,107.57v.11H60.29v-.11Z"/><path class="cls-5" d="M116.41,107.68a.24.24,0,0,1,0-.12h1.9s0,0,0,.07,0,0,0,0Z"/><path class="cls-10" d="M118.31,107.68v-.11h1v.11Z"/><path class="cls-8" d="M117.84,61.78a17.44,17.44,0,0,1,11.59,4.3,4,4,0,0,1-.33,6.63,3.76,3.76,0,0,1-3.58.2,30.69,30.69,0,0,1-3-1.67,12.09,12.09,0,0,0-5.44-1.53,10.89,10.89,0,0,0-7,2.89c-.71.59-1.36,1.26-2.09,1.83a3.74,3.74,0,0,1-5,.1,3.91,3.91,0,0,1-.81-5.32,14,14,0,0,1,4.49-4.29,19.6,19.6,0,0,1,9-3C116.35,61.83,117.09,61.78,117.84,61.78Z"/><path class="cls-8" d="M55.08,81c.74-1.39,3-1,11-1,6.77,0,10.15.06,12,0,6-.19,8.07-.63,10,1,1.43,1.2,2.68,3.46,2,5-.88,2-4.74,2-12,2-9,0-6.7-.31-13,0-2.87.14-7.1.5-9-1C54.53,85.72,54.34,82.35,55.08,81Z"/></g></g></svg>