<svg xmlns="http://www.w3.org/2000/svg" xmlns:xlink="http://www.w3.org/1999/xlink" viewBox="0 0 152.59 106.75"><defs><style>.cls-1{fill:#f8dd6b;}.cls-2{fill-rule:evenodd;fill:url(#linear-gradient);}.cls-3{fill:#6e7eba;}.cls-4{fill:#9ba5cc;}.cls-5{fill:#c1c7de;}.cls-6{fill:#e2e4ee;}.cls-7{fill:#fefefe;}.cls-8{fill:#6e7fba;}.cls-9{fill:#e0e2ed;}</style><linearGradient id="linear-gradient" x1="142.24" y1="680.35" x2="102.34" y2="633.59" gradientTransform="matrix(1, 0, 0, -1, 0, 686)" gradientUnits="userSpaceOnUse"><stop offset="0" stop-color="#ffe600"/><stop offset="1" stop-color="#a90"/></linearGradient></defs><g id="Layer_2" data-name="Layer 2"><g id="Layer_1-2" data-name="Layer 1"><path class="cls-1" d="M124.11,43.56a16.67,16.67,0,1,0-16.66-16.67A16.67,16.67,0,0,0,124.11,43.56Z"/><path class="cls-2" d="M124.11,0a1.46,1.46,0,0,0-1.46,1.46V6.14a1.47,1.47,0,0,0,2.93,0V1.46A1.46,1.46,0,0,0,124.11,0Zm0,46.18a1.47,1.47,0,0,0-1.46,1.47v4.67a1.47,1.47,0,0,0,2.93,0V47.65A1.47,1.47,0,0,0,124.11,46.18Zm11.45-42a1.46,1.46,0,1,1,2.53,1.46l-2.33,4.05a1.46,1.46,0,0,1-2.54-1.46ZM114.47,43.6a1.47,1.47,0,0,0-2,.53l-2.34,4a1.46,1.46,0,0,0,2.53,1.47l2.34-4A1.46,1.46,0,0,0,114.47,43.6Zm30.94-30.69a1.46,1.46,0,0,1,1.46,2.53l-4.05,2.34a1.46,1.46,0,1,1-1.46-2.53Zm-38,23.63a1.47,1.47,0,0,0-2-.54l-4,2.34a1.46,1.46,0,1,0,1.46,2.53l4.05-2.34A1.46,1.46,0,0,0,107.41,36.54Zm42.13-11.11a1.46,1.46,0,1,1,0,2.92h-4.67a1.46,1.46,0,0,1,0-2.92Zm-44.72,1.46a1.46,1.46,0,0,0-1.46-1.46H98.68a1.46,1.46,0,0,0,0,2.92h4.68A1.46,1.46,0,0,0,104.82,26.89Zm42.05,11.45a1.46,1.46,0,0,1-1.46,2.53l-4-2.34A1.46,1.46,0,1,1,142.82,36ZM107.41,17.25a1.47,1.47,0,0,0-.54-2l-4.05-2.34a1.46,1.46,0,1,0-1.46,2.53l4,2.34A1.48,1.48,0,0,0,107.41,17.25Zm30.68,30.93a1.46,1.46,0,0,1-.53,2,1.48,1.48,0,0,1-2-.53l-2.34-4a1.47,1.47,0,0,1,2.54-1.47Zm-23.62-38a1.45,1.45,0,0,0,.53-2l-2.34-4a1.46,1.46,0,1,0-2.53,1.46l2.34,4.05A1.46,1.46,0,0,0,114.47,10.18Z"/><path class="cls-3" d="M60.29,106.62c-1.13,0-2.26,0-3.4-.05l-12.31-.11c-2.83,0-5.65,0-8.45,0s-5.89,0-8.84-.11a20,20,0,0,1-7.08-1.75A34.33,34.33,0,0,1,3.93,90.86,25.49,25.49,0,0,1,.15,80.14,21.3,21.3,0,0,1,1.48,69.81a38.93,38.93,0,0,1,7.7-12.32A26.79,26.79,0,0,1,23,49.6a3.09,3.09,0,0,0,2.55-2.53,55.94,55.94,0,0,1,4.5-12.21,46.78,46.78,0,0,1,7.85-11.13,49.83,49.83,0,0,1,21.53-13A50.73,50.73,0,0,1,75.13,8.41a1,1,0,0,1,.77-.16c1.89.17,3.78.26,5.65.61a1.25,1.25,0,0,1,.85.37,48.14,48.14,0,0,1,13.28,4.61A49.85,49.85,0,0,1,109.45,24q1.59,1.68,3,3.5c.32.08.47.34.65.57A52.64,52.64,0,0,1,117,33.82a3.07,3.07,0,0,0,2.55,1.86.94.94,0,0,1,.48.23c7.46,1,14.34,3.39,20.06,8.42a36,36,0,0,1,11.81,20,33.64,33.64,0,0,1,.74,7.15,35.09,35.09,0,0,1-8.54,22.81A34.55,34.55,0,0,1,129,104.91a33.18,33.18,0,0,1-9.72,1.73,4.76,4.76,0,0,1-1,0H101.07a1.4,1.4,0,0,0-.73.07H72.7a24.53,24.53,0,0,0-3.09-.07c-.65,0-1.3,0-2,0H63.72C62.58,106.63,61.44,106.72,60.29,106.62Z"/><path class="cls-4" d="M67.65,106.61h4.62c.15,0,.32,0,.43.14h-5s-.06,0,0-.08S67.63,106.61,67.65,106.61Z"/><path class="cls-5" d="M67.65,106.61v.12h-4s-.06,0,0-.07,0,0,0,0Z"/><path class="cls-6" d="M63.7,106.62v.11H60.29v-.11Z"/><path class="cls-7" d="M98.61,24.23a27.73,27.73,0,0,1,5,4.93,71.35,71.35,0,0,1,4.89,7c.29.44.16.52-.28.64a38.9,38.9,0,0,0-8.07,3.17.88.88,0,0,0-.51,1.12l0,.05c.81,2.62,4.61,4.43,7.07,3.3a21,21,0,0,1,6.07-1.64,27.66,27.66,0,0,1,15.42,2.07c9.53,4.28,15.49,11.56,17.25,21.89,1.72,10.08-1.31,18.81-8.58,26A27.29,27.29,0,0,1,129,98.1a3.26,3.26,0,0,1-1.38.3c-2.74,0-5.49,0-8.23.07-3.17.11-6.35,0-9.52.13s-6.27,0-9.39.14-6.35,0-9.52.13-6.22.08-9.33.12c-16,.23-31.95,0-47.92.14A27.91,27.91,0,0,1,26,98.41c-7.19-2-12.7-6.18-15.7-13.14C7.6,79,8.45,72.82,12,67.07a20.59,20.59,0,0,1,13.18-9.68,22.67,22.67,0,0,1,8.17-.29c2.06.28,3.59-.21,4.67-2.11a6.87,6.87,0,0,0,1.06-3.4,1.64,1.64,0,0,0-1.44-1.91c-1.18-.3-2.37-.59-3.57-.81-.49-.09-.47-.25-.33-.62a14.59,14.59,0,0,1,3.19-4.62c1.63-1.76,3.48-3.32,5-5.19a6.07,6.07,0,0,0,1.24-2.09A1,1,0,0,0,42.39,35a5.32,5.32,0,0,0-1.48-.15c-.15,0-.37.06-.44-.11s.17-.3.31-.38a41,41,0,0,1,4.26-2,30.56,30.56,0,0,1,13.57-2.16,40.26,40.26,0,0,1,9.92,2.22c2.27.77,4.53,1.58,6.82,2.3a16.54,16.54,0,0,0,10.34-.2c2.29-.75,4.56-1.52,6.77-2.45a10.22,10.22,0,0,0,5.69-6.49C98.3,25.17,98.44,24.74,98.61,24.23Z"/><path class="cls-8" d="M72,87.92A21.36,21.36,0,0,1,59.29,84a6.29,6.29,0,0,1-.89-.73c-1.87-1.8-1.59-4.05.66-5.36a4.79,4.79,0,0,1,4.75,0c1.26.6,2.48,1.3,3.78,1.84a12.37,12.37,0,0,0,12.1-1.26c.64-.4,1.26-.89,1.89-1.32,1.71-1.17,3.5-1.62,5.42-.54a3.3,3.3,0,0,1,.8,5.51,17.34,17.34,0,0,1-6.5,4.11A26.15,26.15,0,0,1,72,87.92Z"/><path class="cls-8" d="M31.42,67.77a14,14,0,0,1,9.6,4,3.94,3.94,0,0,1,.86,4.43,4.06,4.06,0,0,1-4,2.37,5.09,5.09,0,0,1-2.42-1,9.27,9.27,0,0,0-4.52-1.71A7.67,7.67,0,0,0,25.23,78a10.7,10.7,0,0,1-2.36,1.82,4,4,0,0,1-5.61-3.67,4.94,4.94,0,0,1,.84-2.34,13.32,13.32,0,0,1,6.55-4.87A17.78,17.78,0,0,1,31.42,67.77Z"/><path class="cls-4" d="M100.34,106.73c.15-.19.37-.13.57-.13h15.51a.09.09,0,0,1,0,.09s0,0,0,0Z"/><path class="cls-5" d="M116.41,106.73a.28.28,0,0,1,0-.13h1.9s0,.06,0,.08,0,0,0,0Z"/><path class="cls-9" d="M118.31,106.73v-.11h1v.11Z"/><path class="cls-8" d="M117.84,60.83a17.44,17.44,0,0,1,11.59,4.3,4,4,0,0,1-.33,6.63,3.76,3.76,0,0,1-3.58.2,30.69,30.69,0,0,1-3-1.67,12.1,12.1,0,0,0-5.44-1.54,10.85,10.85,0,0,0-7,2.9c-.71.59-1.36,1.26-2.09,1.83a3.74,3.74,0,0,1-5,.1,3.92,3.92,0,0,1-.81-5.33A14,14,0,0,1,106.6,64a19.6,19.6,0,0,1,9-3C116.35,60.88,117.09,60.83,117.84,60.83Z"/></g></g></svg>