<svg xmlns="http://www.w3.org/2000/svg" xmlns:xlink="http://www.w3.org/1999/xlink" viewBox="0 0 160.18 117"><defs><style>.cls-1{fill:#713ffd;}.cls-2,.cls-3{fill:#dbdbdb;}.cls-3{fill-opacity:0.5;}.cls-4{fill:#9ba5cc;}.cls-5{fill:#c1c7de;}.cls-6{fill:#e0e2ed;}.cls-7{fill:#6e7eba;}.cls-8{fill:#fefefe;}.cls-9{fill:#6e7fba;}.cls-10{fill:#e2e4ee;}.cls-11{fill:#a586fc;}.cls-12{fill:url(#linear-gradient);}.cls-13{fill:url(#linear-gradient-2);}.cls-14{fill:url(#linear-gradient-3);}.cls-15{fill:url(#linear-gradient-4);}.cls-16{fill:url(#linear-gradient-5);}</style><linearGradient id="linear-gradient" x1="114.8" y1="-121.35" x2="114.8" y2="-125.19" gradientTransform="matrix(1, 0, 0, -1, 0, -121.35)" gradientUnits="userSpaceOnUse"><stop offset="0" stop-color="#6b38fc"/><stop offset="1" stop-color="#9f7efd"/></linearGradient><linearGradient id="linear-gradient-2" x1="140.22" y1="-154.09" x2="140.22" y2="-157.2" xlink:href="#linear-gradient"/><linearGradient id="linear-gradient-3" x1="132.63" y1="-125.72" x2="133.48" y2="-128.9" xlink:href="#linear-gradient"/><linearGradient id="linear-gradient-4" x1="104.52" y1="-151.54" x2="105.66" y2="-154.23" xlink:href="#linear-gradient"/><linearGradient id="linear-gradient-5" x1="131.89" y1="-137.17" x2="129.57" y2="-136.63" xlink:href="#linear-gradient"/></defs><g id="Layer_2" data-name="Layer 2"><g id="Layer_1-2" data-name="Layer 1"><path class="cls-1" d="M118.06,38.58a17.21,17.21,0,0,1-3.43-.35,16.82,16.82,0,0,1-6.07-2.57A17.06,17.06,0,0,1,120,4.53a13.42,13.42,0,0,0-.87,2.62,12.85,12.85,0,0,0-.31,2.83,13.17,13.17,0,0,0,2.24,7.35,13.28,13.28,0,0,0,3.55,3.54,12.65,12.65,0,0,0,2.23,1.21,13.33,13.33,0,0,0,8.13.69,17,17,0,0,1-16.95,15.81Z"/><path class="cls-2" d="M139,56.89c-.35,0-.71,0-1.07,0H112.8a13.05,13.05,0,0,1-5-1,13.26,13.26,0,0,1-4.28-2.85,13.16,13.16,0,0,1,0-18.63,13.14,13.14,0,0,1,9.33-3.84h9.38a19.88,19.88,0,0,1,18.19-11.37c10.94,0,19.81,8.44,19.81,18.84s-8.87,18.83-19.81,18.83C139.92,56.93,139.47,56.92,139,56.89Z"/><path class="cls-3" d="M140.37,56.75a21,21,0,0,0,4-.38A19.47,19.47,0,0,0,148,55.28a18.83,18.83,0,0,0,3.34-1.72,19.35,19.35,0,0,0,2.9-2.27,19.08,19.08,0,0,0,2.4-2.77,18.7,18.7,0,0,0,1.81-3.16,17.88,17.88,0,0,0,1.14-11,18.12,18.12,0,0,0-1.14-3.5,19.19,19.19,0,0,0-1.81-3.17,19.54,19.54,0,0,0-2.4-2.76,20.23,20.23,0,0,0-13.88-5.46,20.31,20.31,0,0,0-10.91,3.14,19.84,19.84,0,0,0-4.17,3.57,18.49,18.49,0,0,0-3,4.55l0,.11h-9.5a12.84,12.84,0,0,0-5,1,12.3,12.3,0,0,0-2.2,1.19,12.86,12.86,0,0,0-3.5,3.5,13.5,13.5,0,0,0-1.2,2.21A12.89,12.89,0,0,0,102.05,51,12.14,12.14,0,0,0,103.63,53a13.29,13.29,0,0,0,1.92,1.59,12.3,12.3,0,0,0,2.2,1.19,12.84,12.84,0,0,0,5,1H138c.35,0,.71,0,1.06,0h0C139.47,56.74,139.92,56.75,140.37,56.75Zm0,.18c-.45,0-.9,0-1.35,0s-.71,0-1.07,0H112.8a13.15,13.15,0,1,1,0-26.3h9.38a19.86,19.86,0,0,1,18.19-11.37c10.94,0,19.81,8.44,19.81,18.84S151.31,56.93,140.37,56.93Z"/><path class="cls-4" d="M100.34,117c.15-.2.37-.14.57-.14h15.51s0,.06,0,.09,0,0,0,0Z"/><path class="cls-5" d="M116.41,117a.29.29,0,0,1,0-.13h1.9s0,.05,0,.08,0,0,0,0Z"/><path class="cls-6" d="M118.31,117v-.12h1V117Z"/><path class="cls-7" d="M60.29,116.86c-1.13,0-2.26,0-3.4,0q-6.15-.07-12.31-.11c-2.83,0-5.65,0-8.45,0s-5.89,0-8.84-.1a20,20,0,0,1-7.08-1.76A34.31,34.31,0,0,1,3.93,101.11,25.54,25.54,0,0,1,.15,90.39,21.3,21.3,0,0,1,1.48,80.06a38.71,38.71,0,0,1,7.7-12.32A26.87,26.87,0,0,1,23,59.84a3.07,3.07,0,0,0,2.55-2.52,55.75,55.75,0,0,1,4.5-12.21A46.78,46.78,0,0,1,37.94,34,49.85,49.85,0,0,1,59.47,21a50.72,50.72,0,0,1,15.66-2.33,1.1,1.1,0,0,1,.77-.17c1.89.17,3.78.27,5.65.62a1.29,1.29,0,0,1,.85.36,48.49,48.49,0,0,1,13.28,4.62,49.85,49.85,0,0,1,13.77,10.17q1.59,1.68,3,3.5c.32.07.47.33.65.56A52.77,52.77,0,0,1,117,44.07a3,3,0,0,0,2.55,1.85,1,1,0,0,1,.48.24c7.46,1,14.34,3.38,20.06,8.42a36,36,0,0,1,11.81,20,33.71,33.71,0,0,1,.74,7.15,35.12,35.12,0,0,1-8.54,22.82A34.55,34.55,0,0,1,129,115.16a32.84,32.84,0,0,1-9.72,1.72,4.76,4.76,0,0,1-1,.05H101.07a1.3,1.3,0,0,0-.73.07H72.7a24.53,24.53,0,0,0-3.09-.07c-.65,0-1.3,0-2,0H63.72C62.58,116.88,61.44,117,60.29,116.86Z"/><path class="cls-8" d="M98.61,34.47a28.12,28.12,0,0,1,5,4.94,71.21,71.21,0,0,1,4.89,7c.29.45.16.52-.28.65a38.35,38.35,0,0,0-8.07,3.17.88.88,0,0,0-.51,1.12s0,0,0,0c.81,2.63,4.61,4.44,7.07,3.31A21,21,0,0,1,112.85,53a27.75,27.75,0,0,1,15.42,2.06c9.53,4.29,15.49,11.57,17.25,21.9,1.72,10.08-1.31,18.81-8.58,26a27.49,27.49,0,0,1-7.9,5.37,3.26,3.26,0,0,1-1.38.3c-2.74,0-5.49,0-8.23.07-3.17.11-6.35,0-9.52.13s-6.27,0-9.39.13-6.35,0-9.52.14-6.22.07-9.33.12c-16,.23-31.95,0-47.92.14a27.91,27.91,0,0,1-7.74-.72c-7.19-2-12.7-6.18-15.7-13.15C7.6,89.21,8.45,83.07,12,77.32a20.56,20.56,0,0,1,13.18-9.68,22.23,22.23,0,0,1,8.17-.29c2.06.28,3.59-.21,4.67-2.12a6.84,6.84,0,0,0,1.06-3.4,1.63,1.63,0,0,0-1.44-1.9c-1.18-.31-2.37-.59-3.57-.81-.49-.09-.47-.25-.33-.63a14.55,14.55,0,0,1,3.19-4.61c1.63-1.77,3.48-3.32,5-5.19a6.17,6.17,0,0,0,1.24-2.09,1,1,0,0,0-.78-1.39,5.32,5.32,0,0,0-1.48-.15c-.15,0-.37.06-.44-.11s.17-.3.31-.38a41,41,0,0,1,4.26-2,30.56,30.56,0,0,1,13.57-2.16,39.81,39.81,0,0,1,9.92,2.22c2.27.77,4.53,1.58,6.82,2.29a16.61,16.61,0,0,0,10.34-.19c2.29-.75,4.56-1.52,6.77-2.45a10.22,10.22,0,0,0,5.69-6.49C98.3,35.42,98.44,35,98.61,34.47Z"/><path class="cls-9" d="M31.42,78A14.05,14.05,0,0,1,41,82a4,4,0,0,1,.86,4.44,4,4,0,0,1-4,2.36,5,5,0,0,1-2.42-1,9.38,9.38,0,0,0-4.52-1.72,7.64,7.64,0,0,0-5.68,2.17,11.34,11.34,0,0,1-2.36,1.82,4,4,0,0,1-5.61-3.67A4.94,4.94,0,0,1,18.1,84a13.32,13.32,0,0,1,6.55-4.87A17.78,17.78,0,0,1,31.42,78Z"/><path class="cls-9" d="M117.84,71.08a17.44,17.44,0,0,1,11.59,4.3A4,4,0,0,1,129.1,82a3.76,3.76,0,0,1-3.58.21,30.77,30.77,0,0,1-3-1.68A12.22,12.22,0,0,0,117.05,79a10.85,10.85,0,0,0-7,2.9c-.71.59-1.36,1.26-2.09,1.83a3.75,3.75,0,0,1-5,.1,3.92,3.92,0,0,1-.81-5.33,14.05,14.05,0,0,1,4.49-4.29,19.59,19.59,0,0,1,9-3C116.35,71.13,117.09,71.08,117.84,71.08Z"/><path class="cls-4" d="M67.65,116.86h4.62c.15,0,.32,0,.43.14h-5s-.06,0,0-.08S67.63,116.86,67.65,116.86Z"/><path class="cls-5" d="M67.65,116.86V117h-4s-.06,0,0-.08,0,0,0,0Z"/><path class="cls-10" d="M63.7,116.86V117H60.29v-.12Z"/><path class="cls-11" d="M115.07,19.15c3.81-3.44,5-8.34,2.65-10.95s-7.35-1.94-11.16,1.49-5,8.34-2.65,11S111.25,22.58,115.07,19.15Z"/><path class="cls-12" d="M114.8,0l.57,1.4,1.53.52-1.53.52-.57,1.4-.57-1.4-1.53-.52,1.53-.52Z"/><path class="cls-13" d="M140.22,32.73l.47,1.14,1.27.42-1.27.42-.47,1.13-.47-1.13-1.27-.42,1.27-.42Z"/><path class="cls-14" d="M132.63,4.36l.79,1,1.4.08-1.17.78-.17,1.28-.78-1-1.41-.08,1.17-.78Z"/><path class="cls-15" d="M104.52,30.18l.84.81,1.33-.14-1,.86v1.17l-.85-.8-1.32.13,1-.86Z"/><path class="cls-16" d="M131.89,15.81,131,16l-.55,1-.07-1.11-.76-.58.94-.19.55-1,.07,1.11Z"/><path class="cls-9" d="M72.54,96.38a21.35,21.35,0,0,1-12.7-3.89,8,8,0,0,1-.9-.73c-1.86-1.81-1.58-4.06.67-5.36a4.8,4.8,0,0,1,4.74,0c1.27.61,2.48,1.31,3.79,1.85A12.38,12.38,0,0,0,80.23,87c.65-.41,1.26-.89,1.9-1.33,1.71-1.16,3.49-1.61,5.41-.53a3.3,3.3,0,0,1,.81,5.51,17.55,17.55,0,0,1-6.5,4.11A26.17,26.17,0,0,1,72.54,96.38Z"/></g></g></svg>