<?xml version="1.0" ?>
<!-- Uploaded to: SVG Repo, www.svgrepo.com, Generator: SVG Repo Mixer Tools -->
<svg width="800px" height="800px" viewBox="0 0 64 64" id="svg5" version="1.1" xml:space="preserve" xmlns="http://www.w3.org/2000/svg" xmlns:svg="http://www.w3.org/2000/svg">
<defs id="defs2"/>
<g id="layer1" transform="translate(-288,-96)">
<path d="m 320,100 c -4.46405,0 -8.10352,3.63947 -8.10352,8.10352 0,0.43071 0.0442,0.8508 0.10938,1.26367 0.001,6.1e-4 0.003,0.001 0.004,0.002 C 302.68894,112.66545 296,121.55819 296,132 v 11 3.10156 c -2.27703,0.46561 -4,2.48784 -4,4.89844 0,2.7527 2.2473,5 5,5 h 46 c 2.7527,0 5,-2.2473 5,-5 0,-2.4106 -1.72297,-4.43283 -4,-4.89844 V 143 137.9707 132.60156 132 c 0,-10.44181 -6.68894,-19.33454 -16.00977,-22.63086 10e-4,-8.1e-4 0.003,-0.001 0.004,-0.002 0.0652,-0.41287 0.10938,-0.83296 0.10938,-1.26367 C 328.1035,103.63947 324.46405,100 320,100 Z m 0,2 c 3.38317,0 6.10352,2.72035 6.10352,6.10352 0,0.22703 -0.0132,0.45141 -0.0371,0.67187 C 324.12827,108.26954 322.09537,108 320,108 c -2.09537,0 -4.12827,0.26954 -6.06641,0.77539 -0.0239,-0.22046 -0.0371,-0.44484 -0.0371,-0.67187 C 313.89648,104.72035 316.61683,102 320,102 Z m 0,8 c 11.23081,1e-5 20.47367,8.3905 21.82422,19.25195 -0.17442,-0.12024 -0.35552,-0.2332 -0.54492,-0.33203 -1.35818,-0.70865 -2.9809,-0.78801 -4.40235,-0.2168 -1.26208,0.50721 -2.13662,1.37663 -2.95312,1.9961 -0.40707,0.30883 -0.80418,0.56599 -1.19727,0.73242 -0.38859,0.1645 -0.78469,0.23995 -1.12304,0.20508 -0.33902,-0.0349 -0.72211,-0.19124 -1.09961,-0.43164 -0.38125,-0.24278 -0.76571,-0.57328 -1.19532,-0.93555 -0.43008,-0.36265 -0.90917,-0.75983 -1.49804,-1.08398 -0.59436,-0.32717 -1.30008,-0.57431 -2.08399,-0.55469 -0.78501,0.0197 -1.47699,0.30163 -2.05273,0.65039 -0.57052,0.34558 -1.02901,0.75279 -1.44531,1.11328 -0.4158,0.36005 -0.7942,0.67837 -1.16797,0.89844 -0.36817,0.21678 -0.74521,0.33788 -1.06055,0.33789 -0.31533,10e-6 -0.6904,-0.12112 -1.05859,-0.33789 -0.37379,-0.22007 -0.75217,-0.5384 -1.16797,-0.89844 -0.41631,-0.36048 -0.87479,-0.76769 -1.44532,-1.11328 -0.57565,-0.34872 -1.26759,-0.63077 -2.05273,-0.65039 -0.78391,-0.0197 -1.48959,0.22752 -2.08398,0.55469 -0.58893,0.32414 -1.06794,0.72132 -1.49805,1.08398 -0.42964,0.36227 -0.816,0.69276 -1.19727,0.93555 -0.37756,0.24043 -0.7587,0.39673 -1.09765,0.43164 -0.33848,0.0349 -0.7345,-0.0406 -1.12305,-0.20508 -0.39312,-0.16643 -0.79018,-0.4236 -1.19727,-0.73242 -0.81654,-0.61947 -1.69293,-1.48888 -2.95507,-1.9961 -0.71076,-0.2856 -1.47178,-0.40829 -2.22461,-0.37109 -0.75284,0.0372 -1.49665,0.23358 -2.17578,0.58789 -0.19028,0.0993 -0.37167,0.21311 -0.54688,0.33399 C 299.52548,118.39153 308.76854,110 320,110 Z m -19.00195,20.33594 c 0.47314,-0.0233 0.95042,0.0505 1.3789,0.22265 0.78712,0.31632 1.54925,1.01905 2.49219,1.73438 0.47268,0.35858 1.00318,0.7164 1.62695,0.98047 0.62835,0.26601 1.34745,0.42988 2.10743,0.35156 0.75821,-0.0781 1.41398,-0.38039 1.96679,-0.73242 0.54912,-0.34967 0.99852,-0.74502 1.41211,-1.09375 0.41315,-0.34836 0.79644,-0.65361 1.17383,-0.86133 0.37191,-0.20471 0.75157,-0.31463 1.07031,-0.30664 0.31946,0.008 0.69508,0.13757 1.06446,0.36133 0.37455,0.22688 0.75483,0.55125 1.17382,0.91406 0.41952,0.36326 0.88256,0.76888 1.46094,1.10937 0.58399,0.34382 1.28461,0.61525 2.07422,0.61524 0.7896,-1e-5 1.49025,-0.27139 2.07422,-0.61524 0.57839,-0.3405 1.04339,-0.74612 1.46289,-1.10937 0.41898,-0.36281 0.79929,-0.68719 1.17383,-0.91406 0.36931,-0.22372 0.74488,-0.35333 1.06445,-0.36133 0.31871,-0.008 0.69843,0.10193 1.07031,0.30664 0.37737,0.20773 0.75876,0.51298 1.17188,0.86133 0.41359,0.34875 0.86301,0.74408 1.41211,1.09375 0.55284,0.35206 1.2106,0.65431 1.96875,0.73242 0.76002,0.0783 1.47919,-0.0856 2.10742,-0.35156 0.62373,-0.26409 1.15432,-0.6219 1.62695,-0.98047 0.94286,-0.71533 1.70321,-1.41808 2.49024,-1.73438 0.85687,-0.34435 1.91175,-0.29241 2.73047,0.13477 0.79235,0.41345 1.41847,1.2097 1.64648,2.07617 v 1.98438 c -0.22759,-0.17149 -0.4654,-0.33164 -0.7207,-0.46485 -1.35818,-0.70865 -2.9809,-0.78804 -4.40235,-0.21679 -1.26208,0.5072 -2.13662,1.37662 -2.95312,1.99609 -0.40707,0.30883 -0.80418,0.56599 -1.19727,0.73242 -0.38859,0.1645 -0.78469,0.23995 -1.12304,0.20508 -0.33902,-0.0349 -0.72211,-0.18929 -1.09961,-0.42969 -0.38125,-0.24277 -0.76571,-0.57523 -1.19532,-0.9375 -0.43008,-0.36265 -0.90917,-0.75983 -1.49804,-1.08398 -0.59436,-0.32717 -1.30008,-0.57431 -2.08399,-0.55469 -0.78501,0.0197 -1.47699,0.30163 -2.05273,0.65039 -0.57052,0.34559 -1.02901,0.75279 -1.44531,1.11328 -0.4158,0.36005 -0.7942,0.67838 -1.16797,0.89844 -0.36817,0.21678 -0.74521,0.33788 -1.06055,0.33789 -0.31533,1e-5 -0.6904,-0.12112 -1.05859,-0.33789 -0.37379,-0.22007 -0.75217,-0.5384 -1.16797,-0.89844 -0.41631,-0.36048 -0.87479,-0.76769 -1.44532,-1.11328 -0.57565,-0.34872 -1.26759,-0.63077 -2.05273,-0.65039 -0.78391,-0.0197 -1.48959,0.22752 -2.08398,0.55469 -0.58893,0.32414 -1.06794,0.72132 -1.49805,1.08398 -0.42964,0.36227 -0.816,0.69472 -1.19727,0.9375 -0.37756,0.24043 -0.7587,0.39478 -1.09765,0.42969 -0.33848,0.0349 -0.7345,-0.0406 -1.12305,-0.20508 -0.39312,-0.16643 -0.79018,-0.4236 -1.19727,-0.73242 -0.81654,-0.61947 -1.69293,-1.48888 -2.95507,-1.99609 -0.71076,-0.28564 -1.47178,-0.4083 -2.22461,-0.3711 -0.75284,0.0372 -1.49665,0.23358 -2.17578,0.58789 -0.25597,0.13354 -0.49446,0.29284 -0.72266,0.46485 v -1.98438 c 0.22811,-0.86654 0.85401,-1.66272 1.64648,-2.07617 0.40943,-0.2136 0.87843,-0.33408 1.35157,-0.35742 z m 0,5.36914 c 0.47314,-0.0233 0.95042,0.0505 1.3789,0.22265 0.78712,0.31632 1.54925,1.01905 2.49219,1.73438 0.47268,0.35858 1.00318,0.7164 1.62695,0.98047 0.62835,0.26601 1.34745,0.42988 2.10743,0.35156 0.75821,-0.0781 1.41398,-0.38039 1.96679,-0.73242 0.54912,-0.34967 0.99852,-0.74502 1.41211,-1.09375 0.41315,-0.34836 0.79644,-0.65361 1.17383,-0.86133 0.37191,-0.20471 0.75157,-0.31463 1.07031,-0.30664 0.31946,0.008 0.69508,0.13757 1.06446,0.36133 0.37455,0.22689 0.75483,0.55125 1.17382,0.91406 0.41952,0.36326 0.88256,0.76885 1.46094,1.10938 0.58399,0.34381 1.28461,0.61524 2.07422,0.61523 0.7896,-1e-5 1.49025,-0.27139 2.07422,-0.61523 0.57839,-0.34054 1.04339,-0.74613 1.46289,-1.10938 0.41898,-0.36281 0.79929,-0.68719 1.17383,-0.91406 0.36931,-0.22372 0.74488,-0.35333 1.06445,-0.36133 0.31871,-0.008 0.69843,0.10193 1.07031,0.30664 0.37737,0.20773 0.75876,0.51298 1.17188,0.86133 0.41359,0.34875 0.86301,0.74408 1.41211,1.09375 0.55284,0.35206 1.2106,0.65431 1.96875,0.73242 0.76002,0.0783 1.47919,-0.0856 2.10742,-0.35156 0.62373,-0.26409 1.15432,-0.6219 1.62695,-0.98047 0.94286,-0.71533 1.70321,-1.41808 2.49024,-1.73438 0.85687,-0.34435 1.91175,-0.29241 2.73047,0.13477 0.79235,0.41345 1.41847,1.2097 1.64648,2.07617 V 142 h -44 v -3.86133 c 0.22811,-0.86654 0.85401,-1.66272 1.64648,-2.07617 0.40943,-0.2136 0.87843,-0.33408 1.35157,-0.35742 z M 298,144 h 44 v 2 h -44 z m -1,4 h 46 c 1.6793,0 3,1.3207 3,3 0,1.6793 -1.3207,3 -3,3 h -46 c -1.6793,0 -3,-1.3207 -3,-3 0,-1.6793 1.3207,-3 3,-3 z" id="rect11443" style="color:#000000;fill:#000000;fill-rule:evenodd;stroke-linecap:round;stroke-linejoin:round;stroke-miterlimit:4.1"/>
</g>
</svg>