<svg xmlns="http://www.w3.org/2000/svg" viewBox="0 0 154.71 110.22"><defs><style>.cls-1{fill:none;stroke:#d0d0d0;stroke-linecap:round;stroke-width:4px;}.cls-2{fill:#6e7eba;}.cls-3{fill:#9ba5cc;}.cls-4{fill:#c1c7de;}.cls-5{fill:#e2e4ee;}.cls-6{fill:#e0e2ed;}.cls-7{fill:#fefefe;}.cls-8{fill:#6e7fba;}</style></defs><g id="Layer_2" data-name="Layer 2"><g id="Layer_1-2" data-name="Layer 1"><path class="cls-1" d="M129.84,23.55s11,.71,15.9-1,4.87-10.54,0-12.71-6.55,5.6-6.55,5.6"/><path class="cls-1" d="M110.93,8.34s10.42,4.33,15.51,4.31,9.42-5.3,5.23-9-9.89,0-9.89,0"/><path class="cls-1" d="M110.9,33.09s16.55-1.79,23.85,0,5,6.95,1.51,7.18-6.65-2.49-6.65-2.49"/><path class="cls-1" d="M146.13,33.08h6.58"/><path class="cls-1" d="M116.11,23.67h6.58"/><path class="cls-2" d="M60.29,110.09c-1.13,0-2.26,0-3.4,0l-12.31-.11c-2.83,0-5.65,0-8.45,0s-5.89,0-8.84-.11A19.77,19.77,0,0,1,20.21,108,34.36,34.36,0,0,1,3.93,94.34,25.59,25.59,0,0,1,.15,83.62,21.3,21.3,0,0,1,1.48,73.29,38.87,38.87,0,0,1,9.18,61,26.92,26.92,0,0,1,23,53.07a3.08,3.08,0,0,0,2.55-2.53,55.67,55.67,0,0,1,4.5-12.2A46.64,46.64,0,0,1,37.94,27.2a49.92,49.92,0,0,1,21.53-13,50.72,50.72,0,0,1,15.66-2.33,1.1,1.1,0,0,1,.77-.17,56.4,56.4,0,0,1,5.65.62,1.2,1.2,0,0,1,.85.36,48.16,48.16,0,0,1,13.28,4.62,50,50,0,0,1,13.77,10.16q1.59,1.69,3,3.51c.32.07.47.33.65.56A53.63,53.63,0,0,1,117,37.29a3.06,3.06,0,0,0,2.55,1.86.88.88,0,0,1,.48.24c7.46,1,14.34,3.38,20.06,8.41a36,36,0,0,1,11.81,20,33.71,33.71,0,0,1,.74,7.15,35.12,35.12,0,0,1-8.54,22.82A34.63,34.63,0,0,1,129,108.39a33.17,33.17,0,0,1-9.72,1.72,4.76,4.76,0,0,1-1,0H101.07a1.4,1.4,0,0,0-.73.06H72.7a24.52,24.52,0,0,0-3.09-.06c-.65,0-1.3,0-2,0H63.72C62.58,110.11,61.44,110.2,60.29,110.09Z"/><path class="cls-3" d="M100.34,110.21c.15-.2.37-.14.57-.14h15.51a.09.09,0,0,1,0,.09s0,0,0,0Z"/><path class="cls-3" d="M67.65,110.09h4.62c.15,0,.32,0,.43.13h-5s-.06,0,0-.07S67.63,110.09,67.65,110.09Z"/><path class="cls-4" d="M67.65,110.09v.12h-4s-.06,0,0-.08,0,0,0,0Z"/><path class="cls-5" d="M63.7,110.09v.12H60.29v-.12Z"/><path class="cls-4" d="M116.41,110.21a.29.29,0,0,1,0-.13h1.9s0,0,0,.08,0,0,0,0Z"/><path class="cls-6" d="M118.31,110.21v-.12h1v.12Z"/><path class="cls-7" d="M98.61,27.7a27.46,27.46,0,0,1,5,4.94,71.21,71.21,0,0,1,4.89,7c.29.45.16.52-.28.64a38.93,38.93,0,0,0-8.07,3.18.87.87,0,0,0-.51,1.11s0,0,0,0c.81,2.63,4.61,4.44,7.07,3.3a21.32,21.32,0,0,1,6.07-1.63,27.66,27.66,0,0,1,15.42,2.06c9.53,4.28,15.49,11.57,17.25,21.9,1.72,10.08-1.31,18.81-8.58,26a27.69,27.69,0,0,1-7.9,5.37,3.26,3.26,0,0,1-1.38.3c-2.74,0-5.49,0-8.23.06-3.17.11-6.35,0-9.52.14s-6.27,0-9.39.13-6.35,0-9.52.14-6.22.07-9.33.11c-16,.23-31.95,0-47.92.15a27.91,27.91,0,0,1-7.74-.72c-7.19-2-12.7-6.18-15.7-13.15C7.6,82.44,8.45,76.3,12,70.55a20.56,20.56,0,0,1,13.18-9.68,22.23,22.23,0,0,1,8.17-.29c2.06.28,3.59-.22,4.67-2.12a6.84,6.84,0,0,0,1.06-3.4,1.65,1.65,0,0,0-1.44-1.91c-1.18-.3-2.37-.58-3.57-.8-.49-.1-.47-.25-.33-.63a14.59,14.59,0,0,1,3.19-4.62c1.63-1.76,3.48-3.32,5-5.19a6,6,0,0,0,1.24-2.08,1,1,0,0,0-.78-1.39,5.32,5.32,0,0,0-1.48-.15c-.15,0-.37.06-.44-.12s.17-.29.31-.37A39,39,0,0,1,45,35.85a30.56,30.56,0,0,1,13.57-2.16,39.79,39.79,0,0,1,9.92,2.21c2.27.77,4.53,1.58,6.82,2.3A16.54,16.54,0,0,0,85.69,38c2.29-.74,4.56-1.52,6.77-2.44a10.26,10.26,0,0,0,5.69-6.5C98.3,28.65,98.44,28.22,98.61,27.7Z"/><path class="cls-8" d="M117.84,64.3a17.44,17.44,0,0,1,11.59,4.3,4,4,0,0,1-.33,6.63,3.76,3.76,0,0,1-3.58.21,30.77,30.77,0,0,1-3-1.68,12.22,12.22,0,0,0-5.44-1.53,10.89,10.89,0,0,0-7,2.89c-.71.59-1.36,1.27-2.09,1.84a3.74,3.74,0,0,1-5,.09,3.91,3.91,0,0,1-.81-5.32,14,14,0,0,1,4.49-4.29,19.59,19.59,0,0,1,9-3C116.35,64.35,117.09,64.31,117.84,64.3Z"/><path class="cls-8" d="M31.42,71.24a14.06,14.06,0,0,1,9.6,4,4,4,0,0,1,.86,4.44,4.06,4.06,0,0,1-4,2.36,5,5,0,0,1-2.42-1,9.47,9.47,0,0,0-4.52-1.71,7.67,7.67,0,0,0-5.68,2.16,11.06,11.06,0,0,1-2.36,1.83,4,4,0,0,1-5.61-3.67,4.9,4.9,0,0,1,.84-2.34,13.2,13.2,0,0,1,6.55-4.87A17.78,17.78,0,0,1,31.42,71.24Z"/><path class="cls-8" d="M55.66,82.2c.74-1.39,3-1,11-1,6.77,0,10.15.06,12,0,6-.19,8.07-.63,10,1,1.43,1.2,2.68,3.46,2,5-.88,2-4.74,2-12,2-9,0-6.71-.31-13,0-2.87.14-7.1.5-9-1C55.11,87,54.92,83.6,55.66,82.2Z"/></g></g></svg>