<svg xmlns="http://www.w3.org/2000/svg" xmlns:xlink="http://www.w3.org/1999/xlink" viewBox="0 0 163.15 119.46"><defs><style>.cls-1{fill:url(#linear-gradient);}.cls-2{fill:url(#linear-gradient-2);}.cls-3{fill:#6e7eba;}.cls-4{fill:#9ba5cc;}.cls-5{fill:#c1c7de;}.cls-6{fill:#e2e4ee;}.cls-7{fill:#e0e2ed;}.cls-8{fill:#fefefe;}.cls-9{fill:#6e7fba;}</style><linearGradient id="linear-gradient" x1="118.55" y1="687.18" x2="100" y2="693.98" gradientTransform="matrix(1, 0, 0, -1, 0, 714.89)" gradientUnits="userSpaceOnUse"><stop offset="0" stop-color="#ffd100"/><stop offset="1" stop-color="#fff0aa"/></linearGradient><linearGradient id="linear-gradient-2" x1="153.13" y1="681.91" x2="144.99" y2="684.89" xlink:href="#linear-gradient"/></defs><g id="Layer_2" data-name="Layer 2"><g id="Layer_1-2" data-name="Layer 1"><path class="cls-1" d="M115.66,0h23.43L125.62,19.78l15.75.3L108.31,59.2l8-29.83H101.66Z"/><path class="cls-2" d="M151.86,20.82h10.29l-5.92,8.68,6.92.13L148.63,46.81l3.52-13.1h-6.44Z"/><path class="cls-3" d="M60.29,119.33c-1.13,0-2.26,0-3.4,0l-12.31-.11c-2.83,0-5.65,0-8.45,0s-5.89,0-8.84-.11a20,20,0,0,1-7.08-1.75A34.36,34.36,0,0,1,3.93,103.58,25.59,25.59,0,0,1,.15,92.86,21.35,21.35,0,0,1,1.48,82.52,38.93,38.93,0,0,1,9.18,70.2,26.86,26.86,0,0,1,23,62.31a3.09,3.09,0,0,0,2.55-2.53,55.94,55.94,0,0,1,4.5-12.21,46.78,46.78,0,0,1,7.85-11.13,49.92,49.92,0,0,1,21.53-13,51,51,0,0,1,15.66-2.34A1.1,1.1,0,0,1,75.9,21a56.4,56.4,0,0,1,5.65.62,1.2,1.2,0,0,1,.85.36,48.16,48.16,0,0,1,13.28,4.62,49.62,49.62,0,0,1,13.77,10.16q1.59,1.7,3,3.51c.32.07.47.33.65.56A53.63,53.63,0,0,1,117,46.53a3.06,3.06,0,0,0,2.55,1.86.88.88,0,0,1,.48.24C127.44,49.58,134.32,52,140,57a36,36,0,0,1,11.81,20,33.71,33.71,0,0,1,.74,7.15A35.07,35.07,0,0,1,144.05,107,34.65,34.65,0,0,1,129,117.63a33.5,33.5,0,0,1-9.72,1.72,4.17,4.17,0,0,1-1,0H101.07a1.4,1.4,0,0,0-.73.07H72.7a24.53,24.53,0,0,0-3.09-.07c-.65,0-1.3,0-2,0H63.72C62.58,119.35,61.44,119.43,60.29,119.33Z"/><path class="cls-4" d="M100.34,119.45c.15-.2.37-.14.57-.14h15.51a.09.09,0,0,1,0,.09s0,0,0,0Z"/><path class="cls-4" d="M67.65,119.32h4.62c.15,0,.32,0,.43.14h-5s-.06,0,0-.07S67.63,119.32,67.65,119.32Z"/><path class="cls-5" d="M67.65,119.32v.13h-4s-.06-.06,0-.08,0,0,0,0Z"/><path class="cls-6" d="M63.7,119.33v.12H60.29v-.12Z"/><path class="cls-5" d="M116.41,119.45a.28.28,0,0,1,0-.13h1.9s0,.05,0,.07,0,0,0,0Z"/><path class="cls-7" d="M118.31,119.45v-.12h1v.12Z"/><path class="cls-8" d="M98.61,36.94a27.73,27.73,0,0,1,5,4.93,72.58,72.58,0,0,1,4.89,7c.29.45.16.52-.28.64a38.38,38.38,0,0,0-8.07,3.18.86.86,0,0,0-.51,1.11l0,.05c.81,2.62,4.61,4.43,7.07,3.3a21.34,21.34,0,0,1,6.07-1.64,27.66,27.66,0,0,1,15.42,2.07c9.53,4.28,15.49,11.57,17.25,21.89,1.72,10.09-1.31,18.81-8.58,26a27.69,27.69,0,0,1-7.9,5.37,3.26,3.26,0,0,1-1.38.29c-2.74,0-5.49,0-8.23.07-3.17.11-6.35,0-9.52.14s-6.27,0-9.39.13-6.35,0-9.52.14-6.22.07-9.33.11c-16,.23-31.95,0-47.92.14a28.29,28.29,0,0,1-7.74-.71c-7.19-2-12.7-6.19-15.7-13.15C7.6,91.67,8.45,85.54,12,79.79a20.53,20.53,0,0,1,13.18-9.68,22.23,22.23,0,0,1,8.17-.29c2.06.27,3.59-.22,4.67-2.12a6.87,6.87,0,0,0,1.06-3.4,1.64,1.64,0,0,0-1.44-1.91c-1.18-.3-2.37-.58-3.57-.81-.49-.09-.47-.25-.33-.62a14.59,14.59,0,0,1,3.19-4.62c1.63-1.76,3.48-3.32,5-5.19a6,6,0,0,0,1.24-2.08,1,1,0,0,0-.78-1.4,5.32,5.32,0,0,0-1.48-.15c-.15,0-.37.07-.44-.11s.17-.3.31-.37a39,39,0,0,1,4.26-2,30.55,30.55,0,0,1,13.57-2.15,39.79,39.79,0,0,1,9.92,2.21c2.27.77,4.53,1.58,6.82,2.3a16.54,16.54,0,0,0,10.34-.2c2.29-.74,4.56-1.52,6.77-2.45a10.22,10.22,0,0,0,5.69-6.49C98.3,37.89,98.44,37.45,98.61,36.94Z"/><path class="cls-9" d="M117.84,73.54a17.44,17.44,0,0,1,11.59,4.3,4,4,0,0,1-.33,6.63,3.74,3.74,0,0,1-3.58.2,28.75,28.75,0,0,1-3-1.67,12.09,12.09,0,0,0-5.44-1.53,10.89,10.89,0,0,0-7,2.89c-.71.59-1.36,1.26-2.09,1.83a3.74,3.74,0,0,1-5,.1,3.91,3.91,0,0,1-.81-5.32,14,14,0,0,1,4.49-4.29,19.6,19.6,0,0,1,9-3C116.35,73.59,117.09,73.55,117.84,73.54Z"/><path class="cls-9" d="M74.12,88.8a21.28,21.28,0,0,1,12.7,3.89,6.91,6.91,0,0,1,.89.73c1.87,1.8,1.59,4-.66,5.36a4.79,4.79,0,0,1-4.75,0c-1.26-.6-2.48-1.3-3.78-1.84a12.4,12.4,0,0,0-12.1,1.26c-.64.4-1.26.89-1.89,1.32-1.71,1.17-3.5,1.62-5.42.54a3.3,3.3,0,0,1-.8-5.51A17.38,17.38,0,0,1,64.8,90.4,26,26,0,0,1,74.12,88.8Z"/><path class="cls-9" d="M31.42,80.48a14.06,14.06,0,0,1,9.6,4,4,4,0,0,1,.86,4.44,4.06,4.06,0,0,1-4,2.36,5.09,5.09,0,0,1-2.42-1,9.27,9.27,0,0,0-4.52-1.71,7.67,7.67,0,0,0-5.68,2.16,10.7,10.7,0,0,1-2.36,1.82,4,4,0,0,1-5.61-3.67,5,5,0,0,1,.84-2.34,13.24,13.24,0,0,1,6.55-4.86A17.59,17.59,0,0,1,31.42,80.48Z"/></g></g></svg>