<svg xmlns="http://www.w3.org/2000/svg" viewBox="0 0 156.91 107.35"><defs><style>.cls-1{fill:#9ba5cc;}.cls-2{fill:#c1c7de;}.cls-3{fill:#e2e4ee;}.cls-4{fill:#e0e2ed;}.cls-5,.cls-6{fill:#c1c1c1;}.cls-6{fill-opacity:0.5;}.cls-7{fill:#6e7eba;}.cls-8{fill:#fefefe;}.cls-9{fill:#42a0f0;}.cls-10{fill:#fff;}.cls-11{fill:#6e7fba;}</style></defs><g id="Layer_2" data-name="Layer 2"><g id="Layer_1-2" data-name="Layer 1"><path class="cls-1" d="M67.65,107.21h4.62c.15,0,.32,0,.43.14h-5s-.06,0,0-.08S67.63,107.21,67.65,107.21Z"/><path class="cls-2" d="M67.65,107.21v.12h-4s-.06,0,0-.07,0,0,0,0Z"/><path class="cls-3" d="M63.7,107.22v.11H60.29v-.11Z"/><path class="cls-1" d="M100.34,107.33c.15-.2.37-.14.57-.14h15.51s0,.07,0,.09,0,0,0,0Z"/><path class="cls-2" d="M116.41,107.33a.28.28,0,0,1,0-.13h1.9s0,.06,0,.08,0,0,0,0Z"/><path class="cls-4" d="M118.31,107.33v-.11h1v.11Z"/><path class="cls-5" d="M137.45,34.61c-.32,0-.65,0-1,0H113.33a12.09,12.09,0,0,1-11.21-7.46,12,12,0,0,1,0-9.27,12.1,12.1,0,0,1,11.21-7.46H122A18.27,18.27,0,0,1,138.69,0c10.07,0,18.22,7.76,18.22,17.33s-8.15,17.32-18.22,17.32C138.28,34.65,137.86,34.64,137.45,34.61Z"/><path class="cls-6" d="M138.69,34.48a18.41,18.41,0,0,0,3.64-.35,18.08,18.08,0,0,0,3.39-1,18.55,18.55,0,0,0,3.07-1.58,17.51,17.51,0,0,0,2.67-2.1,17.65,17.65,0,0,0,2.21-2.53A16.88,16.88,0,0,0,155.33,24a16.37,16.37,0,0,0,1-10.13,16.83,16.83,0,0,0-1-3.22,16.44,16.44,0,0,0-1.66-2.91,17.21,17.21,0,0,0-2.21-2.54,17.51,17.51,0,0,0-2.67-2.1,18.55,18.55,0,0,0-3.07-1.58,18.08,18.08,0,0,0-3.39-1,19.19,19.19,0,0,0-3.64-.35,18.7,18.7,0,0,0-10,2.89,18.26,18.26,0,0,0-3.83,3.28,17.27,17.27,0,0,0-2.71,4.19l0,.1h-8.74a11.87,11.87,0,0,0-4.64.93,12.06,12.06,0,0,0-2,1.1,12.29,12.29,0,0,0-1.76,1.46,11.85,11.85,0,0,0-1.46,1.77,11.88,11.88,0,0,0,0,13.33A11.85,11.85,0,0,0,104.9,31a12.29,12.29,0,0,0,1.76,1.46,12.06,12.06,0,0,0,2,1.1,11.87,11.87,0,0,0,4.64.93h23.14c.32,0,.65,0,1,0h0C137.87,34.47,138.28,34.48,138.69,34.48Zm0,.17c-.41,0-.83,0-1.24,0s-.65,0-1,0H113.33a12.1,12.1,0,0,1,0-24.19H122A18.26,18.26,0,0,1,138.69,0c10.07,0,18.22,7.76,18.22,17.33S148.76,34.65,138.69,34.65Z"/><path class="cls-7" d="M60.29,107.22c-1.13,0-2.26,0-3.4,0l-12.31-.11c-2.83,0-5.65,0-8.45,0s-5.89,0-8.84-.1a19.78,19.78,0,0,1-7.08-1.76A34.25,34.25,0,0,1,3.93,91.46,25.54,25.54,0,0,1,.15,80.74,21.3,21.3,0,0,1,1.48,70.41a38.71,38.71,0,0,1,7.7-12.32A26.79,26.79,0,0,1,23,50.2a3.09,3.09,0,0,0,2.55-2.53,55.94,55.94,0,0,1,4.5-12.21,46.78,46.78,0,0,1,7.85-11.13,49.73,49.73,0,0,1,21.53-13A50.43,50.43,0,0,1,75.13,9a1,1,0,0,1,.77-.16,56.38,56.38,0,0,1,5.65.61,1.25,1.25,0,0,1,.85.37,48.14,48.14,0,0,1,13.28,4.61,49.85,49.85,0,0,1,13.77,10.17q1.59,1.68,3,3.5c.32.07.47.34.65.57A51.69,51.69,0,0,1,117,34.42a3,3,0,0,0,2.55,1.85,1,1,0,0,1,.48.24c7.46,1,14.34,3.39,20.06,8.42a36,36,0,0,1,11.81,20,33.73,33.73,0,0,1,.74,7.16,35.09,35.09,0,0,1-8.54,22.81A34.55,34.55,0,0,1,129,105.51a33.18,33.18,0,0,1-9.72,1.73,4.76,4.76,0,0,1-1,0H101.07a1.4,1.4,0,0,0-.73.07H72.7a24.53,24.53,0,0,0-3.09-.07c-.65,0-1.3,0-2,0H63.72C62.58,107.23,61.44,107.32,60.29,107.22Z"/><path class="cls-8" d="M98.61,24.82a28.12,28.12,0,0,1,5,4.94,71.21,71.21,0,0,1,4.89,7c.29.45.16.52-.28.65a38.9,38.9,0,0,0-8.07,3.17.88.88,0,0,0-.51,1.12s0,0,0,0c.81,2.63,4.61,4.44,7.07,3.31a21,21,0,0,1,6.07-1.64,27.66,27.66,0,0,1,15.42,2.07c9.53,4.28,15.49,11.56,17.25,21.89,1.72,10.08-1.31,18.81-8.58,26A27.29,27.29,0,0,1,129,98.7a3.26,3.26,0,0,1-1.38.3c-2.74,0-5.49,0-8.23.07-3.17.11-6.35,0-9.52.13s-6.27,0-9.39.13-6.35,0-9.52.14-6.22.07-9.33.12c-16,.23-31.95,0-47.92.14A27.91,27.91,0,0,1,26,99c-7.19-2-12.7-6.18-15.7-13.15C7.6,79.56,8.45,73.42,12,67.67A20.59,20.59,0,0,1,25.17,58a22.45,22.45,0,0,1,8.17-.29c2.06.28,3.59-.21,4.67-2.12a6.84,6.84,0,0,0,1.06-3.4,1.63,1.63,0,0,0-1.44-1.9c-1.18-.31-2.37-.59-3.57-.81-.49-.09-.47-.25-.33-.62a14.59,14.59,0,0,1,3.19-4.62c1.63-1.77,3.48-3.32,5-5.19A6.17,6.17,0,0,0,43.17,37a1,1,0,0,0-.78-1.39,5.32,5.32,0,0,0-1.48-.15c-.15,0-.37.06-.44-.11s.17-.3.31-.38A41,41,0,0,1,45,33a30.56,30.56,0,0,1,13.57-2.16A40.26,40.26,0,0,1,68.53,33c2.27.77,4.53,1.58,6.82,2.3a16.54,16.54,0,0,0,10.34-.2c2.29-.75,4.56-1.52,6.77-2.45a10.22,10.22,0,0,0,5.69-6.49C98.3,25.77,98.44,25.34,98.61,24.82Z"/><path class="cls-9" d="M118.14,33.49c.39,0,4.29,6.11,4.29,8.48a4.29,4.29,0,0,1-8.58,0C113.85,39.6,117.76,33.49,118.14,33.49Z"/><path class="cls-10" d="M114.87,43.57c.43.13,1-.41,1.22-1.2s.09-1.55-.34-1.68-1,.41-1.21,1.2S114.44,43.44,114.87,43.57Z"/><path class="cls-9" d="M141.74,33.49c.39,0,4.29,6.11,4.29,8.48a4.29,4.29,0,0,1-8.58,0C137.45,39.6,141.36,33.49,141.74,33.49Z"/><path class="cls-10" d="M138.47,43.57c.43.13,1-.41,1.22-1.2s.09-1.55-.34-1.68-1,.41-1.21,1.2S138,43.44,138.47,43.57Z"/><path class="cls-9" d="M129.05,20.74c.39,0,4.29,6.1,4.29,8.47a4.29,4.29,0,1,1-8.58,0C124.76,26.84,128.67,20.74,129.05,20.74Z"/><path class="cls-10" d="M125.78,30.82c.43.13,1-.41,1.22-1.21s.09-1.55-.34-1.68-1,.41-1.21,1.21S125.35,30.69,125.78,30.82Z"/><path class="cls-11" d="M74.12,76.68a21.42,21.42,0,0,1,12.7,3.89,7,7,0,0,1,.89.74c1.87,1.8,1.59,4-.66,5.36a4.79,4.79,0,0,1-4.75,0c-1.26-.6-2.48-1.31-3.78-1.85a12.37,12.37,0,0,0-12.1,1.27c-.64.4-1.26.89-1.89,1.32-1.71,1.16-3.5,1.61-5.42.54a3.3,3.3,0,0,1-.8-5.52,17.48,17.48,0,0,1,6.49-4.1A26.24,26.24,0,0,1,74.12,76.68Z"/><path class="cls-11" d="M31.42,68.37a14,14,0,0,1,9.6,4,3.94,3.94,0,0,1,.86,4.43,4.06,4.06,0,0,1-4,2.37,5.09,5.09,0,0,1-2.42-1,9.38,9.38,0,0,0-4.52-1.72,7.64,7.64,0,0,0-5.68,2.17,11,11,0,0,1-2.36,1.82,4,4,0,0,1-5.61-3.67,4.94,4.94,0,0,1,.84-2.34,13.32,13.32,0,0,1,6.55-4.87A17.78,17.78,0,0,1,31.42,68.37Z"/><path class="cls-11" d="M117.84,61.43a17.44,17.44,0,0,1,11.59,4.3,4,4,0,0,1-.33,6.62,3.74,3.74,0,0,1-3.58.21,30.69,30.69,0,0,1-3-1.67,12.1,12.1,0,0,0-5.44-1.54,10.85,10.85,0,0,0-7,2.9c-.71.59-1.36,1.26-2.09,1.83a3.75,3.75,0,0,1-5,.1,3.92,3.92,0,0,1-.81-5.33,14,14,0,0,1,4.49-4.28,19.48,19.48,0,0,1,9-3C116.35,61.48,117.09,61.43,117.84,61.43Z"/></g></g></svg>