<svg xmlns="http://www.w3.org/2000/svg" viewBox="0 0 166.36 107.83"><defs><style>.cls-1,.cls-2{fill:#c1c1c1;}.cls-2{fill-opacity:0.5;}.cls-3{fill:#6e7eba;}.cls-4{fill:#fefefe;}.cls-5{fill:#6e7fba;}.cls-6{fill:#9ba5cc;}.cls-7{fill:#c1c7de;}.cls-8{fill:#e2e4ee;}.cls-9{fill:#e0e2ed;}</style></defs><g id="Layer_2" data-name="Layer 2"><g id="Layer_1-2" data-name="Layer 1"><path class="cls-1" d="M141.38,44.42c-.42,0-.84.06-1.27.06H110.42a15.53,15.53,0,0,1-11-4.53,15.52,15.52,0,0,1,0-22,15.53,15.53,0,0,1,11-4.53h11.07A23.47,23.47,0,0,1,143,0c12.92,0,23.39,10,23.39,22.24S155.89,44.48,143,44.48Q142.18,44.48,141.38,44.42Z"/><path class="cls-2" d="M143,44.26a24.41,24.41,0,0,0,9-1.73,24,24,0,0,0,3.93-2,23.64,23.64,0,0,0,3.43-2.69,23,23,0,0,0,2.83-3.26,22.43,22.43,0,0,0,2.14-3.74,20.85,20.85,0,0,0,1.34-4.14,21.16,21.16,0,0,0,0-8.87,21,21,0,0,0-1.34-4.13,22.13,22.13,0,0,0-5-7A23.36,23.36,0,0,0,152,2,24.28,24.28,0,0,0,147.64.66,25,25,0,0,0,143,.22a23.9,23.9,0,0,0-12.88,3.71,22.84,22.84,0,0,0-4.92,4.21,21.78,21.78,0,0,0-3.48,5.37l-.06.13H110.42a15.22,15.22,0,0,0-6,1.2,16.34,16.34,0,0,0-2.6,1.41,15.44,15.44,0,0,0-4.13,4.14A14.54,14.54,0,0,0,96.32,23a15.28,15.28,0,0,0,0,11.92,14.54,14.54,0,0,0,1.41,2.6,15.44,15.44,0,0,0,4.13,4.14,16.34,16.34,0,0,0,2.6,1.41,15.4,15.4,0,0,0,6,1.2h29.69c.42,0,.84,0,1.25,0h0C141.92,44.24,142.45,44.26,143,44.26Zm0,.22q-.79,0-1.59-.06c-.42,0-.84.06-1.27.06H110.42a15.53,15.53,0,0,1,0-31.06h11.07A23.47,23.47,0,0,1,143,0c12.92,0,23.39,10,23.39,22.24S155.89,44.48,143,44.48Z"/><path class="cls-3" d="M60.29,107.7c-1.13,0-2.26,0-3.4,0l-12.31-.11c-2.83,0-5.65,0-8.45,0s-5.89,0-8.84-.11a20,20,0,0,1-7.08-1.75A34.36,34.36,0,0,1,3.93,92,25.59,25.59,0,0,1,.15,81.23,21.35,21.35,0,0,1,1.48,70.89a38.93,38.93,0,0,1,7.7-12.32A26.86,26.86,0,0,1,23,50.68a3.09,3.09,0,0,0,2.55-2.53,55.94,55.94,0,0,1,4.5-12.21,46.78,46.78,0,0,1,7.85-11.13,49.92,49.92,0,0,1,21.53-13A50.72,50.72,0,0,1,75.13,9.5a1.1,1.1,0,0,1,.77-.17,56.4,56.4,0,0,1,5.65.62,1.2,1.2,0,0,1,.85.36,48.16,48.16,0,0,1,13.28,4.62,49.82,49.82,0,0,1,13.77,10.16q1.59,1.69,3,3.51c.32.07.47.33.65.56A53.63,53.63,0,0,1,117,34.9a3.06,3.06,0,0,0,2.55,1.86A.88.88,0,0,1,120,37c7.46,1,14.34,3.38,20.06,8.41a36,36,0,0,1,11.81,20,33.71,33.71,0,0,1,.74,7.15,35.07,35.07,0,0,1-8.54,22.81A34.65,34.65,0,0,1,129,106a33.5,33.5,0,0,1-9.72,1.72,4.17,4.17,0,0,1-1,0H101.07a1.4,1.4,0,0,0-.73.07H72.7a24.53,24.53,0,0,0-3.09-.07c-.65,0-1.3,0-2,0H63.72C62.58,107.72,61.44,107.8,60.29,107.7Z"/><path class="cls-4" d="M98.61,25.31a27.73,27.73,0,0,1,5,4.93,72.58,72.58,0,0,1,4.89,7c.29.45.16.52-.28.64A38.38,38.38,0,0,0,100.2,41a.86.86,0,0,0-.51,1.11l0,0c.81,2.62,4.61,4.43,7.07,3.3a21.34,21.34,0,0,1,6.07-1.64,27.66,27.66,0,0,1,15.42,2.07c9.53,4.28,15.49,11.57,17.25,21.89,1.72,10.09-1.31,18.81-8.58,26a27.69,27.69,0,0,1-7.9,5.37,3.26,3.26,0,0,1-1.38.29c-2.74,0-5.49,0-8.23.07-3.17.11-6.35,0-9.52.14s-6.27,0-9.39.13-6.35,0-9.52.14-6.22.07-9.33.11c-16,.23-31.95,0-47.92.14A28.29,28.29,0,0,1,26,99.5c-7.19-2-12.7-6.19-15.7-13.15C7.6,80,8.45,73.91,12,68.16a20.53,20.53,0,0,1,13.18-9.68,22.23,22.23,0,0,1,8.17-.29c2.06.27,3.59-.22,4.67-2.12a6.84,6.84,0,0,0,1.06-3.4,1.65,1.65,0,0,0-1.44-1.91c-1.18-.3-2.37-.58-3.57-.81-.49-.09-.47-.25-.33-.62a14.59,14.59,0,0,1,3.19-4.62c1.63-1.76,3.48-3.32,5-5.19a6,6,0,0,0,1.24-2.08,1,1,0,0,0-.78-1.4,5,5,0,0,0-1.48-.14c-.15,0-.37.06-.44-.12s.17-.3.31-.37A37.18,37.18,0,0,1,45,33.46,30.42,30.42,0,0,1,58.61,31.3a39.79,39.79,0,0,1,9.92,2.21c2.27.77,4.53,1.58,6.82,2.3a16.54,16.54,0,0,0,10.34-.2c2.29-.74,4.56-1.52,6.77-2.45a10.22,10.22,0,0,0,5.69-6.49C98.3,26.26,98.44,25.82,98.61,25.31Z"/><path class="cls-5" d="M31.42,68.85a14.06,14.06,0,0,1,9.6,4,4,4,0,0,1,.86,4.44,4.06,4.06,0,0,1-4,2.36,5.09,5.09,0,0,1-2.42-1,9.27,9.27,0,0,0-4.52-1.71,7.67,7.67,0,0,0-5.68,2.16,10.7,10.7,0,0,1-2.36,1.82,4,4,0,0,1-5.61-3.67,5,5,0,0,1,.84-2.34A13.24,13.24,0,0,1,24.65,70,17.59,17.59,0,0,1,31.42,68.85Z"/><path class="cls-6" d="M67.65,107.7h4.62c.15,0,.32,0,.43.13h-5s-.06,0,0-.07S67.63,107.7,67.65,107.7Z"/><path class="cls-7" d="M67.65,107.7v.12h-4s-.06-.06,0-.08,0,0,0,0Z"/><path class="cls-8" d="M63.7,107.7v.12H60.29v-.12Z"/><path class="cls-6" d="M100.34,107.82c.15-.2.37-.14.57-.14h15.51a.09.09,0,0,1,0,.09s0,0,0,0Z"/><path class="cls-7" d="M116.41,107.82a.28.28,0,0,1,0-.13h1.9s0,0,0,.07,0,0,0,0Z"/><path class="cls-9" d="M118.31,107.82v-.12h1v.12Z"/><path class="cls-5" d="M117.84,61.91a17.44,17.44,0,0,1,11.59,4.3,4,4,0,0,1-.33,6.63,3.74,3.74,0,0,1-3.58.2,28.75,28.75,0,0,1-3-1.67,12.22,12.22,0,0,0-5.44-1.53,10.89,10.89,0,0,0-7,2.89c-.71.59-1.36,1.27-2.09,1.83a3.74,3.74,0,0,1-5,.1,3.91,3.91,0,0,1-.81-5.32,14,14,0,0,1,4.49-4.29,19.6,19.6,0,0,1,9-3C116.35,62,117.09,61.92,117.84,61.91Z"/><path class="cls-5" d="M55.08,81.08c.74-1.39,3-1,11-1,6.77,0,10.15.06,12,0,6-.19,8.07-.63,10,1,1.43,1.2,2.68,3.46,2,5-.88,2-4.74,2-12,2-9,0-6.7-.3-13,0-2.87.14-7.1.5-9-1C54.53,85.85,54.34,82.48,55.08,81.08Z"/></g></g></svg>